<svg id="Layer_1" data-name="Layer 1" xmlns="http://www.w3.org/2000/svg" viewBox="0 0 576.77 563.23"><defs><style>.cls-1{fill:#191717;fill-rule:evenodd;}.cls-2{fill:none;}</style></defs><path class="cls-1" d="M288.37,2.55c-158,0-286.11,128.1-286.11,286.15,0,126.4,82,233.65,195.68,271.49,14.31,2.62,19.53-6.21,19.53-13.79,0-6.8-.25-24.79-.38-48.67-79.6,17.29-96.39-38.35-96.39-38.35-13-33.06-31.77-41.86-31.77-41.86-26-17.75,2-17.39,2-17.39,28.71,2,43.82,29.48,43.82,29.48,25.53,43.73,67,31.1,83.28,23.78,2.59-18.49,10-31.1,18.16-38.25-63.54-7.22-130.33-31.77-130.33-141.42,0-31.23,11.15-56.77,29.45-76.78-2.94-7.23-12.76-36.33,2.81-75.72,0,0,24-7.69,78.68,29.33a271.21,271.21,0,0,1,143.26,0c54.63-37,78.61-29.33,78.61-29.33,15.61,39.39,5.79,68.49,2.85,75.72,18.34,20,29.41,45.55,29.41,76.78,0,109.92-66.9,134.11-130.64,141.19,10.27,8.84,19.42,26.3,19.42,53,0,38.25-.35,69.11-.35,78.5,0,7.65,5.16,16.55,19.68,13.75,113.6-37.91,195.5-145.08,195.5-271.45C574.51,130.65,446.39,2.55,288.37,2.55Z"/><rect class="cls-2" width="576.77" height="563.23"/></svg>