<svg xmlns="http://www.w3.org/2000/svg" viewBox="0 0 704.9 274.93"><defs><style>.cls-1{fill:#30bced;}.cls-2{fill:#187fb9;}.cls-3{fill:#fff;}.cls-4{fill:#0c619f;}.cls-5{fill:#004c8d;}.cls-6{fill:#004385;}.cls-7{fill:#7fa1c2;}</style></defs><g id="Layer_3" data-name="Layer 3"><path class="cls-1" d="M108.86,78.34c.06,2.29.1,4.57.1,6.85C109,82.91,108.92,80.63,108.86,78.34Z"/><path class="cls-1" d="M109,85.19c0,1.64,0,3.29,0,4.93C108.94,88.48,109,86.83,109,85.19Z"/><path class="cls-1" d="M108.7,96.85c0,1.14-.11,2.28-.17,3.42C108.59,99.13,108.65,98,108.7,96.85Z"/><path class="cls-1" d="M106.34,47.49q.43,3.1.79,6.23Q106.77,50.6,106.34,47.49Z"/><path class="cls-1" d="M107.28,55.07q.38,3.33.66,6.66Q107.66,58.4,107.28,55.07Z"/><path class="cls-1" d="M108.54,70.12q.18,3.34.28,6.71Q108.72,73.47,108.54,70.12Z"/><path class="cls-1" d="M108.05,63c.16,2,.31,4.08.43,6.12C108.36,67.1,108.21,65.06,108.05,63Z"/><path class="cls-1" d="M108.87,91.67c0,1.15-.06,2.29-.1,3.44C108.81,94,108.84,92.82,108.87,91.67Z"/><path class="cls-1" d="M106.92,118.4c-.14,1.14-.29,2.27-.44,3.41C106.63,120.67,106.78,119.54,106.92,118.4Z"/><path class="cls-1" d="M106.26,123.39c-.2,1.46-.42,2.91-.65,4.37C105.84,126.3,106.06,124.85,106.26,123.39Z"/><path class="cls-1" d="M105.52,128.31c-.26,1.63-.54,3.27-.83,4.9C105,131.58,105.26,129.94,105.52,128.31Z"/><path class="cls-1" d="M108.1,106.78c-.13,1.64-.28,3.29-.44,4.93C107.82,110.07,108,108.42,108.1,106.78Z"/><path class="cls-1" d="M108.44,101.85c-.09,1.54-.2,3.08-.32,4.62C108.24,104.93,108.35,103.39,108.44,101.85Z"/><path class="cls-1" d="M98.45,8.28c1.27-.39,2.55-.75,3.83-1.1C101,7.53,99.72,7.89,98.45,8.28Z"/><path class="cls-1" d="M104.43,134.63c-.22,1.17-.44,2.34-.68,3.51C104,137,104.21,135.8,104.43,134.63Z"/><path class="cls-1" d="M128,2.85c1.48-.11,3-.2,4.44-.25C131,2.65,129.51,2.74,128,2.85Z"/><path class="cls-1" d="M112.75,4.79c1.45-.27,2.91-.51,4.36-.73C115.66,4.28,114.2,4.52,112.75,4.79Z"/><path class="cls-1" d="M122.57,3.33c1.48-.16,3-.29,4.45-.41C125.53,3,124.05,3.17,122.57,3.33Z"/><path class="cls-1" d="M118.1,3.92c1.44-.21,2.87-.4,4.31-.57C121,3.52,119.54,3.71,118.1,3.92Z"/><path class="cls-1" d="M103.06,7c1.42-.37,2.84-.72,4.28-1C105.9,6.25,104.48,6.6,103.06,7Z"/><path class="cls-1" d="M108.24,5.72c1.31-.29,2.62-.56,3.94-.81C110.86,5.16,109.55,5.43,108.24,5.72Z"/><path class="cls-1" d="M100.36,17.19q.84,3.25,1.59,6.52Q101.2,20.44,100.36,17.19Z"/><path class="cls-1" d="M105.2,40.07q.55,3.33,1,6.69Q105.76,43.4,105.2,40.07Z"/><path class="cls-1" d="M102.27,25.13q.72,3.2,1.37,6.41Q103,28.33,102.27,25.13Z"/><path class="cls-1" d="M103.71,31.89q.66,3.34,1.24,6.71Q104.37,35.24,103.71,31.89Z"/><path class="cls-1" d="M98,8.42h0c.06.22.13.43.19.64Z"/><path class="cls-1" d="M98.47,10.22c.55,1.95,1.09,3.91,1.6,5.87C99.56,14.13,99,12.17,98.47,10.22Z"/><path class="cls-1" d="M132.85,2.59c1.38,0,2.77-.07,4.15-.08C135.62,2.52,134.23,2.54,132.85,2.59Z"/><path class="cls-1" d="M107.51,113.2c-.12,1.16-.25,2.33-.39,3.49C107.26,115.53,107.39,114.36,107.51,113.2Z"/><path class="cls-1" d="M91.93,191.8c.52-.86,1-1.72,1.58-2.58C93,190.08,92.45,190.94,91.93,191.8Z"/><path class="cls-1" d="M96.79,183.7c.37-.64.75-1.26,1.12-1.9C97.54,182.44,97.16,183.06,96.79,183.7Z"/><path class="cls-1" d="M102.06,174.47c.39-.7.76-1.4,1.15-2.1C102.82,173.07,102.45,173.77,102.06,174.47Z"/><path class="cls-1" d="M87.25,199.26l1.59-2.5Z"/><path class="cls-1" d="M77.71,211.62q-1.2,2.26-2.44,4.52Q76.51,213.89,77.71,211.62Z"/><path class="cls-1" d="M106.13,167c.49-.91,1-1.83,1.44-2.75C107.1,165.12,106.62,166,106.13,167Z"/><path class="cls-1" d="M82.51,206.52l1-1.46Z"/><path class="cls-1" d="M76.24,215.63l1.39-2Z"/><path class="cls-1" d="M125.44,125.58c.37-.9.74-1.8,1.1-2.71C126.18,123.78,125.81,124.68,125.44,125.58Z"/><path class="cls-1" d="M129.28,115.85c.15-.41.3-.81.46-1.22C129.58,115,129.43,115.44,129.28,115.85Z"/><path class="cls-1" d="M122.09,133.62l1.23-2.9Z"/><path class="cls-1" d="M110.14,159.2c.46-.9.91-1.8,1.36-2.7C111.05,157.4,110.6,158.3,110.14,159.2Z"/><path class="cls-1" d="M118.68,141.38l1.11-2.5Z"/><path class="cls-1" d="M114.44,150.48c.25-.53.52-1.06.77-1.6C115,149.42,114.69,150,114.44,150.48Z"/><path class="cls-1" d="M101.21,149.65c-.39,1.63-.81,3.25-1.23,4.86C100.4,152.9,100.82,151.28,101.21,149.65Z"/><path class="cls-1" d="M98.16,161q-.48,1.66-1,3.33Q97.68,162.7,98.16,161Z"/><path class="cls-1" d="M99.61,155.85c-.31,1.18-.64,2.35-1,3.53C99,158.2,99.3,157,99.61,155.85Z"/><path class="cls-1" d="M96.69,165.93c-.41,1.33-.84,2.65-1.27,4C95.85,168.58,96.28,167.26,96.69,165.93Z"/><path class="cls-1" d="M95.15,170.73c-.53,1.59-1.08,3.19-1.64,4.78C94.07,173.92,94.62,172.32,95.15,170.73Z"/><path class="cls-1" d="M102.35,144.79c-.31,1.39-.64,2.78-1,4.18C101.71,147.57,102,146.18,102.35,144.79Z"/><path class="cls-1" d="M103.41,139.83c-.23,1.13-.47,2.25-.71,3.38C102.94,142.08,103.18,141,103.41,139.83Z"/><path class="cls-1" d="M82.38,202.32c-.5,1.05-1,2.1-1.53,3.15C81.36,204.42,81.88,203.37,82.38,202.32Z"/><path class="cls-1" d="M87.32,191.42c-.66,1.56-1.34,3.11-2,4.67C86,194.53,86.66,193,87.32,191.42Z"/><path class="cls-1" d="M84.74,197.26c-.53,1.16-1.06,2.33-1.61,3.48C83.68,199.59,84.21,198.42,84.74,197.26Z"/><path class="cls-1" d="M80.07,207q-.88,1.75-1.8,3.51Q79.19,208.79,80.07,207Z"/><path class="cls-1" d="M93.06,176.76c-.42,1.18-.85,2.35-1.29,3.52C92.21,179.11,92.64,177.94,93.06,176.76Z"/><path class="cls-1" d="M89.27,186.71c-.51,1.25-1,2.5-1.55,3.74C88.25,189.21,88.76,188,89.27,186.71Z"/><path class="cls-1" d="M91.16,181.9c-.42,1.08-.84,2.16-1.27,3.24C90.32,184.06,90.74,183,91.16,181.9Z"/><path class="cls-1" d="M249.46,212.8c-.51.75-1,1.51-1.56,2.26C248.42,214.31,249,213.55,249.46,212.8Z"/><path class="cls-1" d="M272.41,140.33c0,.65,0,1.29-.05,1.94C272.39,141.62,272.4,141,272.41,140.33Z"/><path class="cls-1" d="M272.44,136.84c0,.71,0,1.41,0,2.11C272.45,138.25,272.44,137.55,272.44,136.84Z"/><path class="cls-1" d="M90.73,10.85c1.47-.54,3-1,4.44-1.54C93.68,9.8,92.2,10.31,90.73,10.85Z"/><path class="cls-1" d="M272.36,133c0,.89.06,1.79.07,2.68C272.42,134.75,272.4,133.85,272.36,133Z"/><path class="cls-1" d="M271.93,125.72c.07.75.12,1.5.17,2.26C272.05,127.22,272,126.47,271.93,125.72Z"/><path class="cls-1" d="M272.18,129c.07,1.1.13,2.2.17,3.3C272.31,131.22,272.25,130.12,272.18,129Z"/><path class="cls-1" d="M272,148.22c0,.38-.07.76-.1,1.14C272,149,272,148.6,272,148.22Z"/><path class="cls-1" d="M271.6,122.43c.07.65.13,1.3.2,2C271.73,123.73,271.67,123.08,271.6,122.43Z"/><path class="cls-1" d="M269.84,163.94c0,.28-.1.57-.16.85C269.74,164.51,269.79,164.22,269.84,163.94Z"/><path class="cls-1" d="M269,167.84l-.06.28Z"/><path class="cls-1" d="M270.46,160.63c-.06.37-.13.75-.19,1.12C270.33,161.38,270.4,161,270.46,160.63Z"/><path class="cls-1" d="M271.39,154.38c-.05.42-.1.83-.16,1.24C271.29,155.21,271.34,154.8,271.39,154.38Z"/><path class="cls-1" d="M271.75,151.3c-.05.4-.09.81-.14,1.22C271.66,152.11,271.7,151.7,271.75,151.3Z"/><path class="cls-1" d="M271,157.48c-.06.41-.12.81-.19,1.21C270.85,158.29,270.91,157.89,271,157.48Z"/><path class="cls-1" d="M267.06,99.71l.47,1.67Z"/><path class="cls-1" d="M266.09,96.53c.17.55.35,1.11.51,1.66C266.44,97.64,266.26,97.08,266.09,96.53Z"/><path class="cls-1" d="M263.92,90.23l.6,1.66Z"/><path class="cls-1" d="M265,93.37c.19.55.38,1.11.56,1.66C265.42,94.48,265.23,93.92,265,93.37Z"/><path class="cls-1" d="M151.56,3.23c1.35.14,2.7.3,4.06.48C154.26,3.53,152.91,3.37,151.56,3.23Z"/><path class="cls-1" d="M147.4,2.87q1.75.12,3.51.3Q149.16,3,147.4,2.87Z"/><path class="cls-1" d="M142.47,2.59c1.26.05,2.53.12,3.79.2C145,2.71,143.73,2.64,142.47,2.59Z"/><path class="cls-1" d="M269.48,109.36c.12.57.24,1.14.35,1.72C269.72,110.5,269.6,109.93,269.48,109.36Z"/><path class="cls-1" d="M270.13,112.61c.11.58.21,1.16.31,1.74C270.34,113.77,270.24,113.19,270.13,112.61Z"/><path class="cls-1" d="M268.28,170.86c-.08.33-.17.66-.26,1C268.11,171.52,268.2,171.19,268.28,170.86Z"/><path class="cls-1" d="M270.7,115.87c.1.59.18,1.19.27,1.78C270.88,117.06,270.8,116.46,270.7,115.87Z"/><path class="cls-1" d="M271.19,119.14c.08.62.16,1.23.23,1.84C271.35,120.37,271.27,119.76,271.19,119.14Z"/><path class="cls-1" d="M268.75,106.13c.14.56.26,1.13.39,1.69C269,107.26,268.89,106.69,268.75,106.13Z"/><path class="cls-1" d="M267.94,102.91c.15.56.29,1.12.43,1.68C268.23,104,268.09,103.47,267.94,102.91Z"/><path class="cls-1" d="M272.24,145.15l-.06.89Z"/><path class="cls-1" d="M45.7,38.51c.88-.83,1.78-1.64,2.68-2.44C47.48,36.87,46.58,37.68,45.7,38.51Z"/><path class="cls-1" d="M57.93,28.41c1.3-.95,2.61-1.88,3.94-2.77C60.54,26.53,59.23,27.46,57.93,28.41Z"/><path class="cls-1" d="M52.59,32.53c.78-.64,1.58-1.27,2.38-1.89C54.17,31.26,53.37,31.89,52.59,32.53Z"/><path class="cls-1" d="M36.26,48.21q1.27-1.45,2.58-2.85Q37.53,46.76,36.26,48.21Z"/><path class="cls-1" d="M267.47,173.87c-.1.38-.22.76-.33,1.15C267.25,174.63,267.37,174.25,267.47,173.87Z"/><path class="cls-1" d="M39,45.17c.93-1,1.88-2,2.84-2.94C40.89,43.19,39.94,44.17,39,45.17Z"/><path class="cls-1" d="M48.69,35.79c1-.88,2.05-1.75,3.08-2.6C50.74,34,49.71,34.91,48.69,35.79Z"/><path class="cls-1" d="M81.1,14.83q2.15-1,4.32-1.9Q83.25,13.85,81.1,14.83Z"/><path class="cls-1" d="M62,25.57q2-1.35,4.07-2.63Q64,24.21,62,25.57Z"/><path class="cls-1" d="M76,17.31c1.41-.72,2.84-1.41,4.27-2.08C78.81,15.9,77.38,16.59,76,17.31Z"/><path class="cls-1" d="M86,12.72c1.38-.57,2.77-1.12,4.17-1.64C88.73,11.6,87.34,12.15,86,12.72Z"/><path class="cls-1" d="M71.59,19.66c1.31-.73,2.64-1.45,4-2.14C74.23,18.21,72.9,18.93,71.59,19.66Z"/><path class="cls-1" d="M66.84,22.44q2-1.23,4-2.39Q68.85,21.21,66.84,22.44Z"/><path class="cls-1" d="M42.64,41.44c.73-.72,1.46-1.43,2.2-2.13C44.1,40,43.37,40.72,42.64,41.44Z"/><path class="cls-1" d="M263.46,186l-.4,1.05Z"/><path class="cls-1" d="M264.6,182.89l-.42,1.17Z"/><path class="cls-1" d="M259.79,194.56c-.37.79-.75,1.59-1.14,2.37C259,196.15,259.42,195.35,259.79,194.56Z"/><path class="cls-1" d="M258.05,198.15c-.41.8-.83,1.6-1.25,2.4C257.22,199.75,257.64,199,258.05,198.15Z"/><path class="cls-1" d="M265.64,179.88l-.41,1.2Z"/><path class="cls-1" d="M266.59,176.87c-.12.4-.24.8-.37,1.2C266.35,177.67,266.47,177.27,266.59,176.87Z"/><path class="cls-1" d="M247.18,216.07c-.77,1.07-1.55,2.14-2.35,3.2C245.63,218.21,246.41,217.14,247.18,216.07Z"/><path class="cls-1" d="M33.49,51.46c.65-.78,1.3-1.56,2-2.32C34.79,49.9,34.14,50.68,33.49,51.46Z"/><path class="cls-1" d="M132.38,107.4c.32-.9.64-1.81,1-2.71C133,105.59,132.7,106.5,132.38,107.4Z"/><path class="cls-1" d="M30.14,55.67c.84-1.11,1.7-2.19,2.57-3.27C31.84,53.48,31,54.56,30.14,55.67Z"/><path class="cls-1" d="M251.69,209.36q-.72,1.15-1.47,2.28Q251,210.52,251.69,209.36Z"/><path class="cls-1" d="M254.22,205.21c-.6,1-1.23,2.07-1.86,3.1C253,207.28,253.62,206.25,254.22,205.21Z"/><path class="cls-1" d="M256.25,201.6c-.61,1.13-1.24,2.25-1.89,3.37C255,203.85,255.64,202.73,256.25,201.6Z"/><path class="cls-1" d="M66,215.1c.19-.86.38-1.73.55-2.6C66.42,213.37,66.23,214.24,66,215.1Z"/><path class="cls-1" d="M113.29,181.5,116,179Z"/><path class="cls-1" d="M108.06,186.42c.92-.88,1.85-1.77,2.78-2.64C109.91,184.65,109,185.54,108.06,186.42Z"/><path class="cls-1" d="M118.52,176.73l2.66-2.36Z"/><path class="cls-1" d="M260.32,193.43c.34-.76.68-1.51,1-2.27h0C261,191.91,260.66,192.67,260.32,193.43Z"/><path class="cls-1" d="M123.79,172.07l2.65-2.28Z"/><path class="cls-1" d="M102.67,191.66c1-1,2-2,3.09-3C104.72,189.63,103.69,190.65,102.67,191.66Z"/><path class="cls-1" d="M129.1,167.52l2.66-2.21Z"/><path class="cls-1" d="M91,203.66c1.14-1.22,2.29-2.42,3.45-3.62C93.25,201.24,92.1,202.44,91,203.66Z"/><path class="cls-1" d="M163,165.67l1.16-.46Z"/><path class="cls-1" d="M272.35,142.5Z"/><path class="cls-1" d="M28.85,57.4h0c1,1.25,2,2.51,3,3.78C30.86,59.91,29.87,58.65,28.85,57.4Z"/><path class="cls-1" d="M76.61,219.69c.89-1.05,1.8-2.1,2.7-3.14C78.41,217.59,77.5,218.64,76.61,219.69Z"/><path class="cls-1" d="M81.33,214.24l2.78-3.12Z"/><path class="cls-1" d="M134.47,163.08c.88-.73,1.78-1.44,2.67-2.16C136.25,161.64,135.35,162.35,134.47,163.08Z"/><path class="cls-1" d="M86.11,208.9l3-3.2Z"/><path class="cls-1" d="M241.74,146.15l3.12-.29Z"/><path class="cls-1" d="M198,153.88c1.08-.29,2.16-.56,3.24-.83C200.17,153.32,199.09,153.59,198,153.88Z"/><path class="cls-1" d="M190.9,155.85l3.18-.9Z"/><path class="cls-1" d="M205.18,152.1c1.09-.26,2.18-.5,3.27-.74C207.36,151.6,206.27,151.84,205.18,152.1Z"/><path class="cls-1" d="M169.9,162.93c.86-.33,1.72-.64,2.57-1C171.62,162.29,170.76,162.6,169.9,162.93Z"/><path class="cls-1" d="M183.84,158c1-.33,2.06-.64,3.08-.95C185.9,157.37,184.87,157.68,183.84,158Z"/><path class="cls-1" d="M212.39,150.52c1.09-.23,2.19-.45,3.28-.66C214.58,150.07,213.48,150.29,212.39,150.52Z"/><path class="cls-1" d="M176.84,160.38c1-.35,1.95-.67,2.92-1C178.79,159.71,177.81,160,176.84,160.38Z"/><path class="cls-1" d="M234.31,146.94l3.22-.38Z"/><path class="cls-1" d="M257.12,145.15l2.44-.1Z"/><path class="cls-1" d="M219.65,149.13c1.09-.2,2.19-.39,3.28-.57C221.84,148.74,220.74,148.93,219.65,149.13Z"/><path class="cls-1" d="M243.24,221.3l1.59-2-1.6,2Z"/><path class="cls-1" d="M249.28,145.55c1-.06,1.95-.14,2.92-.19C251.23,145.41,250.26,145.49,249.28,145.55Z"/><path class="cls-1" d="M262.7,87.09a135.11,135.11,0,0,0-104.24-83A452.11,452.11,0,0,1,86.93,204.33,452,452,0,0,1,262.7,87.09Z"/><path class="cls-1" d="M227,147.94l3.27-.48Z"/><path class="cls-1" d="M139.88,158.72l2.69-2.09Z"/><path class="cls-1" d="M95.87,198.51c1.61-1.66,3.24-3.31,4.87-4.95C99.11,195.2,97.48,196.85,95.87,198.51Z"/><path class="cls-1" d="M101,139.16c.13-.63.25-1.25.37-1.88C101.25,137.91,101.13,138.53,101,139.16Z"/><path class="cls-1" d="M99.94,144.11l.36-1.65Z"/><path class="cls-1" d="M102,134.15c.12-.64.23-1.27.35-1.91C102.2,132.88,102.09,133.51,102,134.15Z"/><path class="cls-1" d="M102.86,129.06l.3-1.83Z"/><path class="cls-1" d="M104.55,117.25c0-.16,0-.31,0-.47C104.58,116.94,104.57,117.09,104.55,117.25Z"/><path class="cls-1" d="M98.79,149c.06-.24.11-.49.17-.74C98.9,148.55,98.85,148.8,98.79,149Z"/><path class="cls-1" d="M103.68,123.73c.07-.5.15-1,.22-1.49C103.83,122.74,103.75,123.23,103.68,123.73Z"/><path class="cls-1" d="M95.67,160.63c.17-.58.35-1.17.51-1.75C96,159.46,95.84,160.05,95.67,160.63Z"/><path class="cls-1" d="M90.89,175.41c.2-.56.39-1.11.58-1.66C91.28,174.3,91.09,174.85,90.89,175.41Z"/><path class="cls-1" d="M89.13,180.22l.35-.95Z"/><path class="cls-1" d="M86.78,186.19l.48-1.17Z"/><path class="cls-1" d="M92.57,170.56l.6-1.84Z"/><path class="cls-1" d="M97.17,155.3c.12-.44.25-.88.36-1.33C97.42,154.42,97.29,154.86,97.17,155.3Z"/><path class="cls-1" d="M105.09,112.26c.06-.55.11-1.11.16-1.66C105.2,111.15,105.15,111.71,105.09,112.26Z"/><path class="cls-1" d="M94.16,165.65l.57-1.87Z"/><path class="cls-1" d="M84.57,191.46c.25-.56.49-1.12.73-1.68C85.06,190.34,84.82,190.9,84.57,191.46Z"/><path class="cls-1" d="M57.5,28.73h0q1.36,2.3,2.67,4.63Q58.86,31,57.5,28.73Z"/><path class="cls-1" d="M101.26,32.41c0-.16-.07-.33-.1-.49C101.19,32.08,101.23,32.25,101.26,32.41Z"/><path class="cls-1" d="M104.8,55.37c0-.47-.11-.94-.16-1.41C104.69,54.43,104.75,54.9,104.8,55.37Z"/><path class="cls-1" d="M103.87,47.87c0-.26-.07-.52-.11-.77C103.8,47.35,103.83,47.61,103.87,47.87Z"/><path class="cls-1" d="M99.84,25.71l-.33-1.44Z"/><path class="cls-1" d="M96.06,10.91c-.1-.38-.21-.76-.32-1.14C95.85,10.15,96,10.53,96.06,10.91Z"/><path class="cls-1" d="M98,17.84l-.31-1.15Z"/><path class="cls-1" d="M102.74,40.52c-.09-.51-.17-1-.26-1.52C102.57,39.5,102.65,40,102.74,40.52Z"/><path class="cls-1" d="M106.37,91.8c0-.53,0-1.07,0-1.61C106.4,90.73,106.38,91.27,106.37,91.8Z"/><path class="cls-1" d="M106.18,97.1l.09-1.9Z"/><path class="cls-1" d="M105.55,63.24c0-.43-.06-.87-.1-1.3C105.49,62.37,105.52,62.81,105.55,63.24Z"/><path class="cls-1" d="M105.91,102.21l.12-2Z"/><path class="cls-1" d="M106,70.27l-.06-1Z"/><path class="cls-1" d="M106.36,78.41c0-.5,0-1,0-1.51C106.34,77.4,106.35,77.91,106.36,78.41Z"/><path class="cls-1" d="M105.55,107.25c0-.64.1-1.27.14-1.91C105.65,106,105.6,106.61,105.55,107.25Z"/><path class="cls-1" d="M221.19,146.3c2.34-.39,4.69-.76,7-1.09C225.88,145.54,223.53,145.91,221.19,146.3Z"/><path class="cls-1" d="M230.5,144.91c1.62-.22,3.24-.43,4.86-.62C233.74,144.48,232.12,144.69,230.5,144.91Z"/><path class="cls-1" d="M238.07,144c1.49-.16,3-.31,4.48-.44C241.06,143.69,239.56,143.84,238.07,144Z"/><path class="cls-1" d="M214.15,147.6c2-.4,4-.77,6-1.12C218.18,146.83,216.17,147.2,214.15,147.6Z"/><path class="cls-1" d="M200.1,150.76c1.41-.35,2.82-.7,4.24-1C202.92,150.06,201.51,150.41,200.1,150.76Z"/><path class="cls-1" d="M207.13,149.08c1.51-.34,3-.65,4.53-1C210.15,148.43,208.64,148.74,207.13,149.08Z"/><path class="cls-1" d="M245.36,143.32c1.5-.12,3-.22,4.49-.32C248.35,143.1,246.86,143.2,245.36,143.32Z"/><path class="cls-1" d="M153.89,169.69c.79-.36,1.58-.74,2.38-1.09C155.47,169,154.68,169.33,153.89,169.69Z"/><path class="cls-1" d="M78.93,221.15c.68-.66,1.37-1.3,2-2C80.3,219.85,79.61,220.49,78.93,221.15Z"/><path class="cls-1" d="M252.57,142.84c1.62-.09,3.24-.15,4.86-.21C255.81,142.69,254.19,142.75,252.57,142.84Z"/><path class="cls-1" d="M73.47,226.62l1-1Z"/><path class="cls-1" d="M193,152.65c1.42-.4,2.83-.79,4.25-1.16C195.84,151.86,194.43,152.25,193,152.65Z"/><path class="cls-1" d="M259.76,142.55c2.39-.06,4.78-.1,7.17-.1C264.54,142.45,262.15,142.49,259.76,142.55Z"/><path class="cls-1" d="M266.94,142.45h0Z"/><path class="cls-1" d="M76.59,220c-.36.35-.73.69-1.08,1.05l-.08.08,0,0-.09.12C75.75,220.8,76.16,220.37,76.59,220Z"/><path class="cls-1" d="M102.84,197.33c1.45-1.09,2.91-2.18,4.37-3.25C105.75,195.15,104.29,196.24,102.84,197.33Z"/><path class="cls-1" d="M109.49,192.47c1.24-.88,2.49-1.76,3.75-2.62C112,190.71,110.73,191.59,109.49,192.47Z"/><path class="cls-1" d="M115.72,188.18q1.83-1.23,3.68-2.41Q117.56,187,115.72,188.18Z"/><path class="cls-1" d="M128.17,180.34c1.5-.89,3-1.75,4.52-2.61C131.18,178.59,129.67,179.45,128.17,180.34Z"/><path class="cls-1" d="M89.86,207.78c1.35-1.16,2.71-2.29,4.08-3.42C92.57,205.49,91.21,206.62,89.86,207.78Z"/><path class="cls-1" d="M134.48,176.71q3.12-1.72,6.29-3.38Q137.6,175,134.48,176.71Z"/><path class="cls-1" d="M95.56,203q2.85-2.31,5.75-4.53Q98.42,200.7,95.56,203Z"/><path class="cls-1" d="M135.14,99.43c.32-1,.65-2,1-2.94C135.79,97.47,135.46,98.45,135.14,99.43Z"/><path class="cls-1" d="M78.68,217.94q1.68-1.62,3.39-3.21Q80.36,216.32,78.68,217.94Z"/><path class="cls-1" d="M176.7,157.77q3.36-1.17,6.72-2.25Q180.06,156.6,176.7,157.77Z"/><path class="cls-1" d="M142.78,172.31c1.48-.76,3-1.51,4.46-2.24C145.74,170.8,144.26,171.55,142.78,172.31Z"/><path class="cls-1" d="M170,160.24c1.71-.65,3.42-1.27,5.13-1.88C173.37,159,171.66,159.59,170,160.24Z"/><path class="cls-1" d="M185.66,154.83c1.54-.48,3.09-1,4.64-1.41C188.75,153.87,187.2,154.35,185.66,154.83Z"/><path class="cls-1" d="M149.82,168.84c1.33-.63,2.65-1.25,4-1.86C152.47,167.59,151.15,168.21,149.82,168.84Z"/><path class="cls-1" d="M163.24,162.89c1.38-.56,2.77-1.11,4.16-1.65C166,161.78,164.62,162.33,163.24,162.89Z"/><path class="cls-1" d="M156.55,165.75c1.31-.58,2.62-1.15,3.94-1.7C159.17,164.6,157.86,165.17,156.55,165.75Z"/><path class="cls-1" d="M84.24,212.74q1.76-1.59,3.52-3.13Q86,211.15,84.24,212.74Z"/><path class="cls-1" d="M84.51,215.87c.79-.73,1.59-1.43,2.38-2.14C86.1,214.44,85.3,215.14,84.51,215.87Z"/><path class="cls-1" d="M90.22,210.77c.85-.74,1.7-1.45,2.55-2.17C91.92,209.32,91.07,210,90.22,210.77Z"/><path class="cls-1" d="M96.05,205.85l2.67-2.15Z"/><path class="cls-1" d="M159.09,144.36c.9-.63,1.79-1.27,2.7-1.9C160.88,143.09,160,143.73,159.09,144.36Z"/><path class="cls-1" d="M102,201.12c.91-.71,1.83-1.4,2.75-2.09C103.83,199.72,102.91,200.41,102,201.12Z"/><path class="cls-1" d="M153.44,148.42c.91-.66,1.81-1.33,2.72-2C155.25,147.09,154.35,147.76,153.44,148.42Z"/><path class="cls-1" d="M257.55,91.7c1.44-.56,2.88-1.09,4.31-1.63C260.43,90.61,259,91.14,257.55,91.7Z"/><path class="cls-1" d="M145.35,154.46c.94-.72,1.89-1.42,2.83-2.13C147.24,153,146.29,153.74,145.35,154.46Z"/><path class="cls-1" d="M108.06,196.57c.93-.68,1.88-1.35,2.82-2C109.94,195.22,109,195.89,108.06,196.57Z"/><path class="cls-1" d="M146.78,173.1c.92-.46,1.83-.93,2.76-1.37C148.61,172.17,147.7,172.64,146.78,173.1Z"/><path class="cls-1" d="M133.38,180.22c1-.55,2-1.11,2.93-1.65C135.33,179.11,134.35,179.67,133.38,180.22Z"/><path class="cls-1" d="M140,176.58c1-.51,1.91-1,2.88-1.53C141.91,175.55,141,176.07,140,176.58Z"/><path class="cls-1" d="M114.22,192.21l2.88-2Z"/><path class="cls-1" d="M120.5,188l2.91-1.86Z"/><path class="cls-1" d="M126.89,184c1-.59,1.94-1.19,2.93-1.76C128.83,182.85,127.86,183.45,126.89,184Z"/><path class="cls-1" d="M164.74,140.43l2.72-1.85Z"/><path class="cls-1" d="M232.56,102.18l3.36-1.52Z"/><path class="cls-1" d="M226.38,105l3.33-1.56Z"/><path class="cls-1" d="M220.21,108l3.33-1.62Z"/><path class="cls-1" d="M251.26,94.17,255,92.68Z"/><path class="cls-1" d="M214,111.16l3.46-1.76Z"/><path class="cls-1" d="M170.43,136.59l2.74-1.8Z"/><path class="cls-1" d="M238.77,99.41l3.42-1.48Z"/><path class="cls-1" d="M245,96.74l3.55-1.47Z"/><path class="cls-1" d="M182,129.21l2.83-1.74Z"/><path class="cls-1" d="M205.54,115.56c1.93-1,3.87-2.06,5.81-3.07C209.41,113.5,207.47,114.53,205.54,115.56Z"/><path class="cls-1" d="M176.18,132.85c.92-.59,1.84-1.18,2.77-1.76C178,131.67,177.1,132.26,176.18,132.85Z"/><path class="cls-1" d="M187.78,125.66c1-.58,1.93-1.15,2.9-1.71C189.71,124.51,188.75,125.08,187.78,125.66Z"/><path class="cls-1" d="M199.58,118.84c1.1-.62,2.21-1.22,3.31-1.82C201.79,117.62,200.68,118.22,199.58,118.84Z"/><path class="cls-1" d="M193.66,122.2l3-1.71Z"/><path class="cls-1" d="M121.93,184.15c1.27-.8,2.55-1.58,3.83-2.36C124.48,182.57,123.2,183.35,121.93,184.15Z"/><path class="cls-1" d="M81.47,183.19c.1-.4.19-.8.29-1.21C81.66,182.39,81.57,182.79,81.47,183.19Z"/><path class="cls-1" d="M80.14,188.61l.33-1.28Z"/><path class="cls-1" d="M59.87,112.91c-.52-1.47-1.06-2.94-1.61-4.4C58.81,110,59.35,111.44,59.87,112.91Z"/><path class="cls-1" d="M78.56,194.33l.18-.61Z"/><path class="cls-1" d="M84.82,165.33c0-.12,0-.24.05-.36C84.85,165.09,84.83,165.21,84.82,165.33Z"/><path class="cls-1" d="M81.51,88.59q-.58-2.55-1.24-5.08Q80.93,86,81.51,88.59Z"/><path class="cls-1" d="M76.75,200.21l.44-1.37Z"/><path class="cls-1" d="M85.53,159.77l.15-1.37Z"/><path class="cls-1" d="M82.85,176.84c.06-.29.11-.58.17-.87C83,176.26,82.91,176.55,82.85,176.84Z"/><path class="cls-1" d="M83.83,171.59c.08-.47.16-.94.23-1.41C84,170.65,83.91,171.12,83.83,171.59Z"/><path class="cls-1" d="M61.34,40.81,60.9,40Z"/><path class="cls-1" d="M66.37,51.25l-.43-.94Z"/><path class="cls-1" d="M63.74,45.59l-.12-.23Z"/><path class="cls-1" d="M68.76,56.83c-.13-.32-.27-.65-.4-1C68.49,56.18,68.63,56.51,68.76,56.83Z"/><path class="cls-1" d="M70.6,216.75l.5-1.2Z"/><path class="cls-1" d="M58.49,35.48l-.51-.9Z"/><path class="cls-1" d="M72.7,211.57l.49-1.26Z"/><path class="cls-1" d="M75,205.31c.08-.22.14-.43.22-.64C75.17,204.88,75.11,205.09,75,205.31Z"/><path class="cls-1" d="M68.07,222.5c.13-.28.27-.56.4-.85C68.34,221.94,68.2,222.22,68.07,222.5Z"/><path class="cls-1" d="M86.13,118c-.14-1.71-.31-3.42-.5-5.13C85.82,114.57,86,116.28,86.13,118Z"/><path class="cls-1" d="M62.85,122.19c-.34-1.14-.68-2.27-1-3.4C62.17,119.92,62.51,121.05,62.85,122.19Z"/><path class="cls-1" d="M69.14,153.05c-.14-1.16-.29-2.32-.45-3.49C68.85,150.73,69,151.89,69.14,153.05Z"/><path class="cls-1" d="M57.76,107.21c-.43-1.1-.87-2.21-1.33-3.31C56.89,105,57.33,106.11,57.76,107.21Z"/><path class="cls-1" d="M86.53,123.52c-.1-1.76-.22-3.51-.37-5.26C86.31,120,86.43,121.76,86.53,123.52Z"/><path class="cls-1" d="M85.54,112c-.2-1.7-.41-3.4-.65-5.1C85.13,108.62,85.34,110.32,85.54,112Z"/><path class="cls-1" d="M83.87,100.32c-.29-1.67-.6-3.35-.93-5C83.27,97,83.58,98.65,83.87,100.32Z"/><path class="cls-1" d="M67.77,143.49c-.26-1.55-.55-3.09-.85-4.63C67.22,140.4,67.51,141.94,67.77,143.49Z"/><path class="cls-1" d="M82.81,94.62c-.34-1.7-.71-3.39-1.09-5.09C82.1,91.23,82.47,92.92,82.81,94.62Z"/><path class="cls-1" d="M84.75,105.94c-.25-1.73-.51-3.45-.8-5.18C84.24,102.49,84.5,104.21,84.75,105.94Z"/><path class="cls-1" d="M68.51,148.19c-.23-1.56-.47-3.12-.73-4.68C68,145.07,68.28,146.63,68.51,148.19Z"/><path class="cls-1" d="M86.55,147.86c0-.37,0-.74.06-1.1C86.59,147.12,86.58,147.49,86.55,147.86Z"/><path class="cls-1" d="M86.09,154.21c0-.39.07-.79.1-1.18C86.16,153.42,86.12,153.82,86.09,154.21Z"/><path class="cls-1" d="M65.61,132.7c-.36-1.54-.73-3.08-1.13-4.61C64.88,129.62,65.25,131.16,65.61,132.7Z"/><path class="cls-1" d="M64.47,128.05c-.39-1.51-.81-3-1.24-4.54C63.66,125,64.08,126.54,64.47,128.05Z"/><path class="cls-1" d="M86.8,129.61c0-1.71-.12-3.41-.21-5.12C86.68,126.2,86.75,127.9,86.8,129.61Z"/><path class="cls-1" d="M66.64,137.5c-.23-1.16-.48-2.31-.73-3.46C66.16,135.19,66.41,136.34,66.64,137.5Z"/><path class="cls-1" d="M86.9,135.88c0-1.78,0-3.55-.07-5.33C86.87,132.33,86.9,134.1,86.9,135.88Z"/><path class="cls-1" d="M82.41,196.34c.28-.6.55-1.21.82-1.81C83,195.13,82.69,195.74,82.41,196.34Z"/><path class="cls-1" d="M86.79,142.53c0-.48,0-1,0-1.44C86.82,141.57,86.8,142.05,86.79,142.53Z"/><path class="cls-1" d="M61.4,117.49q-.72-2.26-1.51-4.52Q60.69,115.22,61.4,117.49Z"/><path class="cls-1" d="M72.39,205.26q.89-2.49,1.71-5Q73.28,202.77,72.39,205.26Z"/><path class="cls-1" d="M51.38,92.66c-.52-1.07-1.06-2.13-1.6-3.2C50.32,90.53,50.86,91.59,51.38,92.66Z"/><path class="cls-1" d="M74.46,199.15c.44-1.36.87-2.72,1.27-4.09C75.33,196.43,74.9,197.79,74.46,199.15Z"/><path class="cls-1" d="M49.15,88.24c-.74-1.41-1.5-2.83-2.28-4.23C47.65,85.41,48.41,86.83,49.15,88.24Z"/><path class="cls-1" d="M54,98.16c-.64-1.42-1.31-2.83-2-4.24C52.67,95.33,53.34,96.74,54,98.16Z"/><path class="cls-1" d="M77.73,188c.39-1.5.76-3,1.12-4.5C78.49,185,78.12,186.45,77.73,188Z"/><path class="cls-1" d="M80.31,176.81c.35-1.71.66-3.42,1-5.13C81,173.39,80.66,175.1,80.31,176.81Z"/><path class="cls-1" d="M70.45,210.45c.52-1.33,1-2.67,1.51-4C71.47,207.78,71,209.12,70.45,210.45Z"/><path class="cls-1" d="M76.15,193.68q.73-2.52,1.41-5.05Q76.88,191.17,76.15,193.68Z"/><path class="cls-1" d="M79.19,182c.35-1.55.69-3.1,1-4.65C79.88,178.9,79.54,180.45,79.19,182Z"/><path class="cls-1" d="M34.85,65.21c-.71-1-1.43-1.94-2.16-2.9C33.42,63.27,34.14,64.23,34.85,65.21Z"/><path class="cls-1" d="M46.8,83.89c-.76-1.36-1.54-2.7-2.33-4C45.26,81.19,46,82.53,46.8,83.89Z"/><path class="cls-1" d="M62.82,227.72c.78-1.56,1.52-3.13,2.26-4.7C64.34,224.59,63.6,226.16,62.82,227.72Z"/><path class="cls-1" d="M38.35,70.18c-.87-1.28-1.76-2.54-2.66-3.81C36.59,67.64,37.48,68.9,38.35,70.18Z"/><path class="cls-1" d="M63,227c-.1.32-.19.64-.29,1l0-.06C62.83,227.58,62.91,227.28,63,227Z"/><path class="cls-1" d="M41.12,74.39q-1.3-2-2.65-4Q39.82,72.36,41.12,74.39Z"/><path class="cls-1" d="M72.83,67.53l-.33-.92Z"/><path class="cls-1" d="M67.92,216.68q1-2.44,2-4.92Q69,214.24,67.92,216.68Z"/><path class="cls-1" d="M65.7,221.68c.64-1.41,1.28-2.82,1.89-4.24C67,218.86,66.34,220.27,65.7,221.68Z"/><path class="cls-1" d="M43.74,78.63c-.61-1-1.24-2-1.88-3.06C42.5,76.59,43.13,77.61,43.74,78.63Z"/><path class="cls-1" d="M81.49,101.25l-.12-.66Z"/><path class="cls-1" d="M79.3,90.18l-.24-1.08Z"/><path class="cls-1" d="M80.5,95.86l-.15-.77Z"/><path class="cls-1" d="M82.42,107.31l-.15-1Z"/><path class="cls-1" d="M83.15,113.17c0-.29-.06-.58-.1-.87C83.09,112.59,83.12,112.88,83.15,113.17Z"/><path class="cls-1" d="M55.92,102.64q-.93-2.2-1.9-4.39Q55,100.44,55.92,102.64Z"/><path class="cls-1" d="M74.75,73.32c-.11-.35-.22-.7-.34-1.06C74.53,72.62,74.64,73,74.75,73.32Z"/><path class="cls-1" d="M76.39,78.77c-.06-.2-.11-.4-.17-.6C76.28,78.37,76.33,78.57,76.39,78.77Z"/><path class="cls-1" d="M77.87,84.23c-.07-.28-.14-.55-.22-.83C77.73,83.68,77.8,84,77.87,84.23Z"/><path class="cls-1" d="M82.35,164.94c.24-1.71.46-3.43.66-5.14C82.81,161.51,82.59,163.23,82.35,164.94Z"/><path class="cls-1" d="M83.68,153c.15-1.73.27-3.45.37-5.18C84,149.58,83.83,151.3,83.68,153Z"/><path class="cls-1" d="M83.15,158.55c.15-1.4.29-2.8.42-4.19C83.44,155.75,83.3,157.15,83.15,158.55Z"/><path class="cls-1" d="M81.52,170.26c.23-1.41.46-2.82.66-4.23C82,167.44,81.75,168.85,81.52,170.26Z"/><path class="cls-1" d="M84.1,147c.07-1.48.14-3,.18-4.44C84.24,144,84.17,145.49,84.1,147Z"/><path class="cls-1" d="M84.09,124.64l-.06-1Z"/><path class="cls-1" d="M83.67,118.49l0-.37Z"/><path class="cls-1" d="M84.33,141.11c0-1.74.07-3.48.07-5.23C84.4,137.63,84.37,139.37,84.33,141.11Z"/><path class="cls-1" d="M84.33,130.61l0-.92Z"/><path class="cls-1" d="M70.8,62l-.13-.34Z"/><path class="cls-1" d="M69.5,221.2c.32-.54.64-1.08,1-1.62C70.14,220.12,69.82,220.66,69.5,221.2Z"/><path class="cls-1" d="M66.69,225.87l1.08-1.76Z"/><path class="cls-1" d="M66.14,226.6l-.33.69,0-.08C66,227,66.05,226.8,66.14,226.6Z"/><path class="cls-1" d="M63.1,38.77c-.8-1.53-1.62-3.06-2.46-4.57C61.48,35.71,62.3,37.24,63.1,38.77Z"/><path class="cls-1" d="M69.21,196.12c.08-.68.16-1.37.23-2.06C69.37,194.75,69.29,195.44,69.21,196.12Z"/><path class="cls-1" d="M66.78,211.62c.23-1.16.46-2.33.67-3.5C67.24,209.29,67,210.46,66.78,211.62Z"/><path class="cls-1" d="M67.56,207.45c.17-.95.33-1.89.49-2.83C67.89,205.56,67.73,206.5,67.56,207.45Z"/><path class="cls-1" d="M68.23,203.39c.12-.76.24-1.52.35-2.28C68.47,201.87,68.35,202.63,68.23,203.39Z"/><path class="cls-1" d="M68.76,199.71c.1-.7.19-1.41.28-2.12C69,198.3,68.86,199,68.76,199.71Z"/><path class="cls-1" d="M69.58,192.57c.07-.69.13-1.37.19-2.06C69.71,191.2,69.65,191.88,69.58,192.57Z"/><path class="cls-1" d="M66,44.42c-.78-1.61-1.59-3.21-2.41-4.8C64.36,41.21,65.17,42.81,66,44.42Z"/><path class="cls-1" d="M70.29,182c0-.79,0-1.59.07-2.38C70.34,180.37,70.32,181.17,70.29,182Z"/><path class="cls-1" d="M70.39,178.43c0-1.17,0-2.35,0-3.52C70.43,176.08,70.41,177.26,70.39,178.43Z"/><path class="cls-1" d="M70.67,54.9q-1-2.4-2.07-4.78Q69.67,52.51,70.67,54.9Z"/><path class="cls-1" d="M73,60.72c-.63-1.66-1.29-3.3-2-4.94C71.71,57.42,72.37,59.06,73,60.72Z"/><path class="cls-1" d="M138,2.51c1.36,0,2.73,0,4.09.07C140.77,2.53,139.4,2.51,138,2.51Z"/><path class="cls-1" d="M68.25,49.36c-.72-1.61-1.47-3.22-2.24-4.81C66.78,46.14,67.53,47.75,68.25,49.36Z"/><path class="cls-1" d="M70.12,185.49c0-.72.08-1.44.11-2.16C70.2,184.05,70.16,184.77,70.12,185.49Z"/><path class="cls-1" d="M69.89,189c0-.7.1-1.39.14-2.09C70,187.64,69.94,188.33,69.89,189Z"/><path class="cls-1" d="M75.52,210.42c.2-.39.39-.77.6-1.16C75.91,209.65,75.72,210,75.52,210.42Z"/><path class="cls-1" d="M137.85,91.07c.26-.85.54-1.7.8-2.55C138.39,89.37,138.11,90.22,137.85,91.07Z"/><path class="cls-1" d="M141,80.7c.15-.51.28-1,.43-1.53C141.26,79.68,141.13,80.19,141,80.7Z"/><path class="cls-1" d="M65.24,218.58l.51-2.2Z"/><path class="cls-1" d="M145.29,64.54c.24-1,.48-1.92.71-2.88C145.77,62.62,145.53,63.58,145.29,64.54Z"/><path class="cls-1" d="M72.45,216.05l.59-1Z"/><path class="cls-1" d="M80.2,201.09l.85-1.8Z"/><path class="cls-1" d="M77.9,205.78c.28-.55.55-1.11.82-1.66C78.45,204.67,78.18,205.23,77.9,205.78Z"/><path class="cls-1" d="M74.91,65.92c-.57-1.63-1.17-3.25-1.78-4.86C73.74,62.67,74.34,64.29,74.91,65.92Z"/><path class="cls-1" d="M147.36,55.81c.17-.74.35-1.48.51-2.22C147.71,54.33,147.53,55.07,147.36,55.81Z"/><path class="cls-1" d="M143.19,72.71c.25-.93.49-1.86.73-2.8C143.68,70.85,143.44,71.78,143.19,72.71Z"/><path class="cls-1" d="M80.12,82.94q-.65-2.47-1.35-4.94Q79.47,80.46,80.12,82.94Z"/><path class="cls-1" d="M73.44,219.56l.09-.12-.32.37c.49-.86,1-1.72,1.45-2.58-.51.9-1,1.79-1.53,2.69Z"/><path class="cls-1" d="M149.56,45.61c.13-.65.25-1.29.38-1.94C149.81,44.32,149.69,45,149.56,45.61Z"/><path class="cls-1" d="M64.36,222.05c.18-.69.36-1.38.53-2.07C64.72,220.67,64.54,221.36,64.36,222.05Z"/><path class="cls-1" d="M155.28,10.14c.09-.73.16-1.47.25-2.2C155.44,8.67,155.37,9.41,155.28,10.14Z"/><path class="cls-1" d="M154,19.91c.07-.56.16-1.11.24-1.66C154.15,18.8,154.06,19.35,154,19.91Z"/><path class="cls-1" d="M151.12,37.48c.17-.93.34-1.86.5-2.79C151.46,35.62,151.29,36.55,151.12,37.48Z"/><path class="cls-1" d="M152.57,29.14c.15-.92.3-1.83.44-2.74C152.87,27.31,152.72,28.22,152.57,29.14Z"/><path class="cls-1" d="M63.42,225.51c.19-.67.37-1.34.55-2C63.79,224.17,63.61,224.84,63.42,225.51Z"/><path class="cls-1" d="M70.1,163.87c-.1-1.57-.2-3.15-.34-4.72C69.9,160.72,70,162.3,70.1,163.87Z"/><path class="cls-1" d="M69.76,159.11c-.13-1.56-.29-3.12-.46-4.67C69.47,156,69.63,157.55,69.76,159.11Z"/><path class="cls-1" d="M78.63,77.49c-.49-1.69-1-3.36-1.53-5C77.63,74.13,78.14,75.8,78.63,77.49Z"/><path class="cls-1" d="M70.43,174.91c0-1.58,0-3.16-.07-4.74C70.4,171.75,70.43,173.33,70.43,174.91Z"/><path class="cls-1" d="M76.81,71.55q-.8-2.49-1.66-5Q76,69.07,76.81,71.55Z"/><path class="cls-1" d="M70.32,168.77q-.06-1.76-.15-3.51Q70.26,167,70.32,168.77Z"/><path class="cls-2" d="M137,2.51c-1.38,0-2.77,0-4.15.08h-.38c-1.48,0-3,.14-4.44.25l-1,.07c-1.49.12-3,.25-4.45.41l-.16,0c-1.44.17-2.87.36-4.31.57l-1,.14c-1.45.22-2.91.46-4.36.73l-.57.12c-1.32.25-2.63.52-3.94.81l-.9.2c-1.44.33-2.86.68-4.28,1l-.78.21c-1.28.35-2.56.71-3.83,1.1L98,8.42l.18.64.33,1.16c.55,1.95,1.09,3.91,1.6,5.87.1.37.2.73.29,1.1q.84,3.25,1.59,6.52c.11.48.21.95.32,1.42q.72,3.2,1.37,6.41c0,.12,0,.23.07.35q.66,3.34,1.24,6.71c.08.49.17,1,.25,1.47q.55,3.33,1,6.69c0,.24.06.48.1.73q.43,3.1.79,6.23l.15,1.35q.38,3.33.66,6.66c0,.43.07.86.11,1.29.16,2,.31,4.08.43,6.12l.06,1q.18,3.34.28,6.71c0,.5,0,1,0,1.51.06,2.29.1,4.57.1,6.85,0,1.64,0,3.29,0,4.93,0,.52,0,1,0,1.55,0,1.15-.06,2.29-.1,3.44,0,.58,0,1.16-.07,1.74,0,1.14-.11,2.28-.17,3.42,0,.53,0,1-.09,1.58-.09,1.54-.2,3.08-.32,4.62,0,.1,0,.21,0,.31-.13,1.64-.28,3.29-.44,4.93l-.15,1.49c-.12,1.16-.25,2.33-.39,3.49-.06.57-.13,1.14-.2,1.71-.14,1.14-.29,2.27-.44,3.41-.07.53-.14,1-.22,1.58-.2,1.46-.42,2.91-.65,4.37l-.09.55c-.26,1.63-.54,3.27-.83,4.9-.09.47-.18.94-.26,1.42-.22,1.17-.44,2.34-.68,3.51-.11.57-.22,1.13-.34,1.69-.23,1.13-.47,2.25-.71,3.38-.12.52-.23,1-.35,1.58-.31,1.39-.64,2.78-1,4.18-.06.22-.11.45-.17.68-.39,1.63-.81,3.25-1.23,4.86-.12.45-.25.89-.37,1.34-.31,1.18-.64,2.35-1,3.53L98.16,161q-.48,1.66-1,3.33l-.48,1.57c-.41,1.33-.84,2.65-1.27,4l-.27.83c-.53,1.59-1.08,3.19-1.64,4.78l-.45,1.25c-.42,1.18-.85,2.35-1.29,3.52l-.61,1.62c-.42,1.08-.84,2.16-1.27,3.24-.2.53-.41,1.05-.62,1.57-.51,1.25-1,2.5-1.55,3.74-.13.33-.26.65-.4,1-.66,1.56-1.34,3.11-2,4.67l-.54,1.17c-.53,1.16-1.06,2.33-1.61,3.48l-.75,1.58c-.5,1.05-1,2.1-1.53,3.15L80.07,207q-.88,1.75-1.8,3.51l-.56,1.08q-1.2,2.26-2.44,4.52c-.2.37-.41.73-.61,1.09-.48.86-1,1.72-1.45,2.58l.32-.37c.91-1.27,1.82-2.54,2.71-3.81l1.39-2q2.48-3.56,4.88-7.14l1-1.46c1.27-1.93,2.54-3.86,3.78-5.8l1.59-2.5q1.56-2.47,3.09-5c.52-.86,1-1.72,1.58-2.58q1.67-2.76,3.28-5.52c.37-.64.75-1.26,1.12-1.9,1.41-2.43,2.79-4.88,4.15-7.33.39-.7.76-1.4,1.15-2.1,1-1.8,2-3.61,2.92-5.42.49-.91,1-1.83,1.44-2.75q1.31-2.49,2.57-5c.46-.9.91-1.8,1.36-2.7,1-2,2-4,2.94-6,.25-.53.52-1.06.77-1.6,1.18-2.49,2.33-5,3.47-7.5l1.11-2.5q1.15-2.62,2.3-5.26l1.23-2.9c.72-1.71,1.42-3.42,2.12-5.14.37-.9.74-1.8,1.1-2.71.93-2.33,1.84-4.68,2.74-7,.15-.41.3-.81.46-1.22q1.35-3.6,2.64-7.23c.32-.9.64-1.81,1-2.71.61-1.75,1.22-3.51,1.81-5.26.32-1,.65-2,1-2.94q.88-2.7,1.74-5.42c.26-.85.54-1.7.8-2.55q1.2-3.9,2.33-7.82c.15-.51.28-1,.43-1.53q.92-3.23,1.78-6.46c.25-.93.49-1.86.73-2.8q.71-2.68,1.37-5.37c.24-1,.48-1.92.71-2.88q.7-2.92,1.36-5.85c.17-.74.35-1.48.51-2.22q.88-4,1.69-8c.13-.65.25-1.29.38-1.94.41-2.06.8-4.13,1.18-6.19.17-.93.34-1.86.5-2.79.33-1.85.64-3.7.95-5.55.15-.92.3-1.83.44-2.74q.51-3.25,1-6.49c.07-.56.16-1.11.24-1.66q.56-4,1.05-8.11c.09-.73.16-1.47.25-2.2.16-1.39.31-2.78.46-4.17l-.37-.06c-1.36-.18-2.71-.34-4.06-.48l-.65-.06q-1.75-.18-3.51-.3l-1.14-.08c-1.26-.08-2.53-.15-3.79-.2h-.34c-1.36-.05-2.73-.07-4.09-.07Z"/><path class="cls-3" d="M155.28,10.14q-.5,4.06-1.05,8.11c-.08.55-.17,1.1-.24,1.66q-.47,3.24-1,6.49c-.14.91-.29,1.82-.44,2.74-.31,1.85-.62,3.7-.95,5.55-.16.93-.33,1.86-.5,2.79-.38,2.06-.77,4.13-1.18,6.19-.13.65-.25,1.29-.38,1.94q-.81,4-1.69,8c-.16.74-.34,1.48-.51,2.22q-.66,2.92-1.36,5.85c-.23,1-.47,1.92-.71,2.88q-.66,2.68-1.37,5.37c-.24.94-.48,1.87-.73,2.8q-.87,3.24-1.78,6.46c-.15.51-.28,1-.43,1.53q-1.12,3.92-2.33,7.82c-.26.85-.54,1.7-.8,2.55q-.85,2.72-1.74,5.42c-.32,1-.65,2-1,2.94-.59,1.75-1.2,3.51-1.81,5.26-.31.9-.63,1.81-1,2.71q-1.29,3.63-2.64,7.23c-.16.41-.31.81-.46,1.22-.9,2.34-1.81,4.69-2.74,7-.36.91-.73,1.81-1.1,2.71-.7,1.72-1.4,3.43-2.12,5.14l-1.23,2.9q-1.14,2.64-2.3,5.26l-1.11,2.5c-1.14,2.51-2.29,5-3.47,7.5-.25.54-.52,1.07-.77,1.6-1,2-1.94,4-2.94,6-.45.9-.9,1.8-1.36,2.7q-1.26,2.51-2.57,5c-.47.92-.95,1.84-1.44,2.75-1,1.81-1.94,3.62-2.92,5.42-.39.7-.76,1.4-1.15,2.1-1.36,2.45-2.74,4.9-4.15,7.33-.37.64-.75,1.26-1.12,1.9q-1.62,2.76-3.28,5.52c-.53.86-1.06,1.72-1.58,2.58q-1.53,2.49-3.09,5l-1.59,2.5c-1.24,1.94-2.51,3.87-3.78,5.8l-1,1.46q-2.4,3.58-4.88,7.14l-1.39,2c-.89,1.27-1.8,2.54-2.71,3.81l-.09.12q6.6-7.8,13.49-15.23A452.11,452.11,0,0,0,158.46,4.12c-.82-.13-1.65-.24-2.47-.35-.15,1.39-.3,2.78-.46,4.17C155.44,8.67,155.37,9.41,155.28,10.14Z"/><path class="cls-3" d="M75.41,221.1l-.2.23.11-.11Z"/><path class="cls-4" d="M60.64,34.2c.84,1.51,1.66,3,2.46,4.57l.44.85c.82,1.59,1.63,3.19,2.41,4.8l.06.13c.77,1.59,1.52,3.2,2.24,4.81.12.25.24.51.35.76q1.07,2.39,2.07,4.78l.36.88c.68,1.64,1.34,3.28,2,4.94,0,.11.09.22.13.34.61,1.61,1.21,3.23,1.78,4.86l.24.67q.87,2.47,1.66,5c.1.3.19.6.29.9.53,1.68,1,3.35,1.53,5,.05.17.09.34.14.51q.7,2.46,1.35,4.94l.15.57q.66,2.53,1.24,5.08l.21.94c.38,1.7.75,3.39,1.09,5.09,0,.23.09.46.13.69.33,1.66.64,3.34.93,5,0,.15,0,.3.08.44.29,1.73.55,3.45.8,5.18,0,.33.09.65.14,1,.24,1.7.45,3.4.65,5.1l.09.84c.19,1.71.36,3.42.5,5.13l0,.27c.15,1.75.27,3.5.37,5.26l.06,1c.09,1.71.16,3.41.21,5.12l0,.94c0,1.78.07,3.55.07,5.33s0,3.47-.07,5.21c0,.48,0,1,0,1.44q-.08,2.11-.18,4.23c0,.36,0,.73-.06,1.1-.09,1.72-.21,3.44-.36,5.17,0,.39-.07.79-.1,1.18-.12,1.4-.26,2.79-.41,4.19l-.15,1.37c-.2,1.74-.42,3.47-.66,5.2,0,.12,0,.24-.05.36-.23,1.62-.49,3.24-.76,4.85-.07.47-.15.94-.23,1.41q-.39,2.19-.81,4.38c-.06.29-.11.58-.17.87-.34,1.71-.71,3.43-1.09,5.14-.1.41-.19.81-.29,1.21-.32,1.38-.65,2.76-1,4.14l-.33,1.28c-.44,1.7-.91,3.41-1.4,5.11l-.18.61c-.44,1.5-.9,3-1.37,4.51l-.44,1.37c-.48,1.49-1,3-1.5,4.46-.08.21-.14.42-.22.64-.59,1.67-1.21,3.34-1.84,5l-.49,1.26c-.52,1.33-1,2.65-1.6,4l-.5,1.2c-.69,1.64-1.4,3.28-2.13,4.9-.13.29-.27.57-.4.85-.62,1.37-1.27,2.74-1.93,4.1-.09.2-.18.41-.28.61.27-.44.56-.89.83-1.34l1.08-1.76c.58-1,1.16-1.94,1.73-2.91.32-.54.64-1.08,1-1.62.68-1.18,1.34-2.35,2-3.53l.59-1q1.26-2.28,2.48-4.59c.2-.39.39-.77.6-1.16.6-1.16,1.2-2.32,1.78-3.48.28-.55.55-1.11.82-1.66.5-1,1-2,1.48-3l.85-1.8c.46-1,.92-2,1.36-2.95.28-.6.55-1.21.82-1.81.46-1,.9-2.05,1.34-3.07.25-.56.49-1.12.73-1.68.5-1.19,1-2.39,1.48-3.59l.48-1.17q1-2.4,1.87-4.8l.35-.95c.48-1.29,1-2.57,1.41-3.86.2-.56.39-1.11.58-1.66.37-1.06.74-2.13,1.1-3.19l.6-1.84c.34-1,.66-2.05,1-3.07l.57-1.87c.32-1.05.64-2.1.94-3.15.17-.58.35-1.17.51-1.75.34-1.19.67-2.38,1-3.58.12-.44.25-.88.36-1.33q.66-2.46,1.26-4.93c.06-.24.11-.49.17-.74.34-1.39.67-2.79,1-4.19l.36-1.65c.24-1.1.47-2.2.7-3.3.13-.63.25-1.25.37-1.88.21-1,.41-2.08.6-3.13.12-.64.23-1.27.35-1.91.19-1.06.36-2.12.54-3.18l.3-1.83c.18-1.16.35-2.33.52-3.5.07-.5.15-1,.22-1.49.23-1.66.45-3.32.65-5,0-.16,0-.31,0-.47.18-1.5.34-3,.49-4.52.06-.55.11-1.11.16-1.66.11-1.12.21-2.23.3-3.35,0-.64.1-1.27.14-1.91.08-1,.16-2.08.22-3.13l.12-2q.09-1.57.15-3.15l.09-1.9c0-1.13.07-2.26.1-3.4,0-.53,0-1.07,0-1.61,0-1.66,0-3.33,0-5,0-2.26,0-4.52-.1-6.78,0-.5,0-1,0-1.51q-.1-3.32-.28-6.63l-.06-1c-.12-2-.26-4-.43-6,0-.43-.06-.87-.1-1.3q-.28-3.28-.65-6.57c0-.47-.11-.94-.16-1.41-.24-2-.49-4.06-.77-6.09,0-.26-.07-.52-.11-.77-.31-2.2-.66-4.39-1-6.58-.09-.51-.17-1-.26-1.52-.38-2.2-.78-4.4-1.22-6.59,0-.16-.07-.33-.1-.49-.41-2.07-.86-4.14-1.32-6.21l-.33-1.44C99,22.12,98.5,20,98,17.84l-.31-1.15c-.5-1.94-1-3.86-1.58-5.78-.1-.38-.21-.76-.32-1.14,0-.2-.12-.39-.18-.59l-.39.13c-1.49.49-3,1-4.44,1.54l-.6.23c-1.4.52-2.79,1.07-4.17,1.64l-.54.21q-2.17.91-4.32,1.9l-.86.4c-1.43.67-2.86,1.36-4.27,2.08l-.41.21c-1.33.69-2.66,1.41-4,2.14l-.7.39q-2,1.15-4,2.39l-.81.5Q64,24.21,62,25.57l-.09.07c-1.33.89-2.64,1.82-3.94,2.77l-.43.32q1.36,2.3,2.67,4.63C60.32,33.64,60.48,33.92,60.64,34.2Z"/><path class="cls-3" d="M96.06,10.91c.55,1.92,1.08,3.84,1.58,5.78L98,17.84C98.5,20,99,22.12,99.51,24.27l.33,1.44c.46,2.07.91,4.14,1.32,6.21,0,.16.07.33.1.49.44,2.19.84,4.39,1.22,6.59.09.5.17,1,.26,1.52.36,2.19.71,4.38,1,6.58,0,.25.07.51.11.77.28,2,.53,4.06.77,6.09,0,.47.11.94.16,1.41q.36,3.29.65,6.57c0,.43.07.87.1,1.3.17,2,.31,4,.43,6l.06,1q.18,3.32.28,6.63c0,.5,0,1,0,1.51.06,2.26.1,4.52.1,6.78,0,1.67,0,3.34,0,5,0,.54,0,1.08,0,1.61,0,1.14-.06,2.27-.1,3.4l-.09,1.9q-.06,1.58-.15,3.15l-.12,2c-.06,1.05-.14,2.09-.22,3.13,0,.64-.09,1.27-.14,1.91-.09,1.12-.19,2.23-.3,3.35,0,.55-.1,1.11-.16,1.66-.15,1.51-.31,3-.49,4.52,0,.16,0,.31,0,.47-.2,1.67-.42,3.33-.65,5-.07.5-.15,1-.22,1.49-.17,1.17-.34,2.34-.52,3.5l-.3,1.83c-.18,1.06-.35,2.12-.54,3.18-.12.64-.23,1.27-.35,1.91-.19,1-.39,2.09-.6,3.13-.12.63-.24,1.25-.37,1.88-.23,1.1-.46,2.2-.7,3.3l-.36,1.65c-.31,1.4-.64,2.8-1,4.19-.06.25-.11.5-.17.74q-.6,2.47-1.26,4.93c-.11.45-.24.89-.36,1.33-.32,1.2-.65,2.39-1,3.58-.16.58-.34,1.17-.51,1.75-.3,1.05-.62,2.1-.94,3.15l-.57,1.87c-.33,1-.65,2-1,3.07l-.6,1.84c-.36,1.06-.73,2.13-1.1,3.19-.19.55-.38,1.1-.58,1.66-.46,1.29-.93,2.57-1.41,3.86l-.35.95q-.91,2.4-1.87,4.8l-.48,1.17c-.49,1.2-1,2.4-1.48,3.59-.24.56-.48,1.12-.73,1.68-.44,1-.88,2-1.34,3.07-.27.6-.54,1.21-.82,1.81-.44,1-.9,2-1.36,2.95l-.85,1.8c-.49,1-1,2-1.48,3-.27.55-.54,1.11-.82,1.66-.58,1.16-1.18,2.32-1.78,3.48-.21.39-.4.77-.6,1.16Q74.3,212.73,73,215l-.59,1c-.66,1.18-1.32,2.35-2,3.53-.31.54-.63,1.08-1,1.62-.57,1-1.15,1.94-1.73,2.91l-1.08,1.76c-.27.45-.56.9-.83,1.34l0,.08c-.67,1.36-1.35,2.73-2.05,4.08q4.6-5.82,9.37-11.45c.52-.9,1-1.79,1.53-2.69.2-.36.41-.72.61-1.09q1.24-2.25,2.44-4.52l.56-1.08q.92-1.75,1.8-3.51l.78-1.56c.51-1.05,1-2.1,1.53-3.15l.75-1.58c.55-1.15,1.08-2.32,1.61-3.48l.54-1.17c.7-1.56,1.38-3.11,2-4.67.14-.32.27-.64.4-1,.53-1.24,1-2.49,1.55-3.74.21-.52.42-1,.62-1.57.43-1.08.85-2.16,1.27-3.24l.61-1.62c.44-1.17.87-2.34,1.29-3.52l.45-1.25c.56-1.59,1.11-3.19,1.64-4.78l.27-.83c.43-1.32.86-2.64,1.27-4l.48-1.57q.51-1.67,1-3.33l.48-1.65c.33-1.18.66-2.35,1-3.53.12-.45.25-.89.37-1.34.42-1.61.84-3.23,1.23-4.86.06-.23.11-.46.17-.68.33-1.4.66-2.79,1-4.18.12-.53.23-1.06.35-1.58.24-1.13.48-2.25.71-3.38.12-.56.23-1.12.34-1.69.24-1.17.46-2.34.68-3.51.08-.48.17-.95.26-1.42.29-1.63.57-3.27.83-4.9l.09-.55c.23-1.46.45-2.91.65-4.37.08-.53.15-1,.22-1.58.15-1.14.3-2.27.44-3.41.07-.57.14-1.14.2-1.71.14-1.16.27-2.33.39-3.49l.15-1.49c.16-1.64.31-3.29.44-4.93,0-.1,0-.21,0-.31.12-1.54.23-3.08.32-4.62,0-.53.06-1,.09-1.58.06-1.14.12-2.28.17-3.42,0-.58,0-1.16.07-1.74,0-1.15.07-2.29.1-3.44,0-.51,0-1,0-1.55,0-1.64,0-3.29,0-4.93,0-2.28,0-4.56-.1-6.85,0-.5,0-1,0-1.51q-.1-3.36-.28-6.71l-.06-1c-.12-2-.27-4.08-.43-6.12,0-.43-.07-.86-.11-1.29q-.28-3.33-.66-6.66l-.15-1.35q-.36-3.12-.79-6.23c0-.25-.07-.49-.1-.73q-.48-3.36-1-6.69c-.08-.49-.17-1-.25-1.47q-.58-3.36-1.24-6.71c0-.12,0-.23-.07-.35q-.65-3.21-1.37-6.41c-.11-.47-.21-.94-.32-1.42q-.75-3.27-1.59-6.52c-.09-.37-.19-.73-.29-1.1-.51-2-1-3.92-1.6-5.87l-.33-1.16c-.06-.21-.13-.42-.19-.64l-2.39.76c.06.2.13.39.18.59C95.85,10.15,96,10.53,96.06,10.91Z"/><path class="cls-5" d="M32.69,62.31c.73,1,1.45,1.92,2.16,2.9l.84,1.16c.9,1.27,1.79,2.53,2.66,3.81l.12.17q1.35,2,2.65,4l.74,1.18c.64,1,1.27,2,1.88,3.06l.73,1.22c.79,1.34,1.57,2.68,2.33,4l.07.12c.78,1.4,1.54,2.82,2.28,4.23l.63,1.22c.54,1.07,1.08,2.13,1.6,3.2.21.42.42.84.62,1.26.67,1.41,1.34,2.82,2,4.24a.36.36,0,0,0,0,.09q1,2.19,1.9,4.39l.51,1.26c.46,1.1.9,2.21,1.33,3.31.16.43.33.86.5,1.3.55,1.46,1.09,2.93,1.61,4.4l0,.06q.8,2.25,1.51,4.52c.14.43.28.87.41,1.3.36,1.13.7,2.26,1,3.4.13.44.26.88.38,1.32.43,1.51.85,3,1.24,4.54v0c.4,1.53.77,3.07,1.13,4.61l.3,1.34c.25,1.15.5,2.3.73,3.46.1.45.19.9.28,1.36.3,1.54.59,3.08.85,4.63v0c.26,1.56.5,3.12.73,4.68l.18,1.37c.16,1.17.31,2.33.45,3.49,0,.47.11.93.16,1.39.17,1.55.33,3.11.46,4.67v0c.14,1.57.24,3.15.34,4.72,0,.46,0,.93.07,1.39q.09,1.76.15,3.51c0,.47,0,.93,0,1.4,0,1.58.07,3.16.07,4.74,0,1.17,0,2.35,0,3.52,0,.38,0,.77,0,1.15,0,.79,0,1.59-.07,2.38l-.06,1.37c0,.72-.07,1.44-.11,2.16,0,.49-.06,1-.09,1.45,0,.7-.09,1.39-.14,2.09l-.12,1.48c-.06.69-.12,1.37-.19,2.06,0,.5-.09,1-.14,1.49-.07.69-.15,1.38-.23,2.06,0,.49-.11,1-.17,1.47-.09.71-.18,1.42-.28,2.12l-.18,1.4c-.11.76-.23,1.52-.35,2.28l-.18,1.23c-.16.94-.32,1.88-.49,2.83,0,.22-.07.44-.11.67-.21,1.17-.44,2.34-.67,3.5-.06.3-.13.59-.19.88-.17.87-.36,1.74-.55,2.6-.09.43-.19.86-.29,1.28l-.51,2.2c-.12.47-.23.94-.35,1.4-.17.69-.35,1.38-.53,2.07-.12.48-.25,1-.39,1.45-.18.67-.36,1.34-.55,2L63,227c-.09.3-.17.6-.26.9,0,0,0-.11.08-.16.78-1.56,1.52-3.13,2.26-4.7.21-.44.41-.89.62-1.34.64-1.41,1.28-2.82,1.89-4.24l.33-.76q1-2.44,2-4.92l.51-1.31c.52-1.33,1-2.67,1.51-4,.14-.4.29-.79.43-1.18q.89-2.49,1.71-5l.36-1.13c.44-1.36.87-2.72,1.27-4.09l.42-1.38q.73-2.52,1.41-5.05c.06-.23.11-.45.17-.68.39-1.5.76-3,1.12-4.5.11-.48.22-1,.34-1.45.35-1.55.69-3.1,1-4.65,0-.18.07-.36.11-.54.35-1.71.66-3.42,1-5.13.09-.47.17-.94.25-1.42.23-1.41.46-2.82.66-4.23.06-.36.12-.73.17-1.09.24-1.71.46-3.43.66-5.14,0-.42.09-.84.14-1.25.15-1.4.29-2.8.42-4.19,0-.45.08-.89.11-1.33.15-1.73.27-3.45.37-5.18,0-.29,0-.59,0-.88.07-1.48.14-3,.18-4.44,0-.47,0-.94,0-1.42,0-1.74.07-3.48.07-5.23s0-3.51-.07-5.27l0-.92c0-1.69-.12-3.37-.21-5l-.06-1q-.15-2.58-.36-5.16l0-.37c-.15-1.65-.31-3.3-.49-5,0-.29-.06-.58-.1-.87-.19-1.66-.4-3.33-.63-5l-.15-1q-.36-2.51-.78-5l-.12-.66c-.27-1.58-.56-3.15-.87-4.73l-.15-.77c-.33-1.64-.68-3.28-1-4.91l-.24-1.08c-.38-1.63-.77-3.25-1.19-4.87-.07-.28-.14-.55-.22-.83-.4-1.55-.82-3.09-1.26-4.63-.06-.2-.11-.4-.17-.6q-.7-2.43-1.47-4.85c-.11-.35-.22-.7-.34-1.06-.51-1.58-1-3.16-1.58-4.73l-.33-.92C72,65.05,71.39,63.5,70.8,62l-.13-.34q-.92-2.4-1.91-4.79c-.13-.32-.27-.65-.4-1q-1-2.31-2-4.6l-.43-.94c-.72-1.58-1.45-3.16-2.2-4.72l-.12-.23c-.74-1.53-1.5-3-2.28-4.55L60.9,40c-.78-1.5-1.59-3-2.41-4.48l-.51-.9c-.81-1.46-1.64-2.9-2.49-4.34l-.52.4c-.8.62-1.6,1.25-2.38,1.89-.28.22-.55.43-.82.66-1,.85-2.06,1.72-3.08,2.6l-.31.28c-.9.8-1.8,1.61-2.68,2.44l-.86.8c-.74.7-1.47,1.41-2.2,2.13l-.79.79c-1,1-1.91,1.94-2.84,2.94a1.54,1.54,0,0,0-.17.19q-1.31,1.39-2.58,2.85l-.81.93c-.66.76-1.31,1.54-2,2.32l-.78.94c-.87,1.08-1.73,2.16-2.57,3.27-.44.57-.86,1.15-1.29,1.73,1,1.25,2,2.51,3,3.78Z"/><path class="cls-3" d="M58.49,35.48c.82,1.49,1.63,3,2.41,4.48l.44.85c.78,1.51,1.54,3,2.28,4.55l.12.23c.75,1.56,1.48,3.14,2.2,4.72l.43.94q1,2.3,2,4.6c.13.33.27.66.4,1q1,2.39,1.91,4.79l.13.34c.59,1.54,1.15,3.09,1.7,4.65l.33.92c.55,1.57,1.07,3.15,1.58,4.73.12.36.23.71.34,1.06q.77,2.42,1.47,4.85c.06.2.11.4.17.6.44,1.54.86,3.08,1.26,4.63.08.28.15.55.22.83.42,1.62.81,3.24,1.19,4.87l.24,1.08c.37,1.63.72,3.27,1,4.91l.15.77c.31,1.58.6,3.15.87,4.73l.12.66q.42,2.5.78,5l.15,1c.23,1.66.44,3.33.63,5,0,.29.07.58.1.87.18,1.65.34,3.3.49,5l0,.37q.21,2.58.36,5.16l.06,1c.09,1.68.16,3.36.21,5l0,.92c0,1.76.07,3.51.07,5.27s0,3.49-.07,5.23c0,.48,0,.95,0,1.42,0,1.48-.11,3-.18,4.44,0,.29,0,.59,0,.88-.1,1.73-.22,3.45-.37,5.18,0,.44-.08.88-.11,1.33-.13,1.39-.27,2.79-.42,4.19-.05.41-.09.83-.14,1.25-.2,1.71-.42,3.43-.66,5.14,0,.36-.11.73-.17,1.09-.2,1.41-.43,2.82-.66,4.23-.08.48-.16,1-.25,1.42-.3,1.71-.61,3.42-1,5.13,0,.18-.08.36-.11.54-.32,1.55-.66,3.1-1,4.65-.12.48-.23,1-.34,1.45-.36,1.5-.73,3-1.12,4.5-.06.23-.11.45-.17.68q-.68,2.53-1.41,5.05l-.42,1.38c-.4,1.37-.83,2.73-1.27,4.09l-.36,1.13q-.82,2.49-1.71,5c-.14.39-.29.78-.43,1.18-.49,1.34-1,2.68-1.51,4l-.51,1.31q-1,2.48-2,4.92l-.33.76c-.61,1.42-1.25,2.83-1.89,4.24-.21.45-.41.9-.62,1.34-.74,1.57-1.48,3.14-2.26,4.7,0,.05,0,.11-.08.16l0,.06c-.81,2.72-1.68,5.44-2.62,8.14,1.21-1.58,2.44-3.15,3.67-4.71.7-1.35,1.38-2.72,2.05-4.08l.33-.69c.66-1.36,1.31-2.73,1.93-4.1.13-.28.27-.56.4-.85.73-1.62,1.44-3.26,2.13-4.9l.5-1.2c.55-1.33,1.08-2.65,1.6-4l.49-1.26c.63-1.66,1.25-3.33,1.84-5,.08-.22.14-.43.22-.64.52-1.48,1-3,1.5-4.46l.44-1.37c.47-1.5.93-3,1.37-4.51l.18-.61c.49-1.7,1-3.41,1.4-5.11l.33-1.28c.35-1.38.68-2.76,1-4.14.1-.4.19-.8.29-1.21.38-1.71.75-3.43,1.09-5.14.06-.29.11-.58.17-.87q.42-2.19.81-4.38c.08-.47.16-.94.23-1.41.27-1.61.53-3.23.76-4.85,0-.12,0-.24.05-.36.24-1.73.46-3.46.66-5.2l.15-1.37c.15-1.4.29-2.79.41-4.19,0-.39.07-.79.1-1.18.15-1.73.27-3.45.36-5.17,0-.37,0-.74.06-1.1q.11-2.12.18-4.23c0-.48,0-1,0-1.44,0-1.74.07-3.47.07-5.21s0-3.55-.07-5.33l0-.94c0-1.71-.12-3.41-.21-5.12l-.06-1c-.1-1.76-.22-3.51-.37-5.26l0-.27c-.14-1.71-.31-3.42-.5-5.13l-.09-.84c-.2-1.7-.41-3.4-.65-5.1,0-.33-.09-.65-.14-1-.25-1.73-.51-3.45-.8-5.18,0-.14-.06-.29-.08-.44-.29-1.67-.6-3.35-.93-5,0-.23-.08-.46-.13-.69-.34-1.7-.71-3.39-1.09-5.09l-.21-.94q-.58-2.55-1.24-5.08l-.15-.57q-.65-2.47-1.35-4.94c0-.17-.09-.34-.14-.51-.49-1.69-1-3.36-1.53-5-.1-.3-.19-.6-.29-.9q-.8-2.49-1.66-5l-.24-.67c-.57-1.63-1.17-3.25-1.78-4.86,0-.12-.09-.23-.13-.34-.63-1.66-1.29-3.3-2-4.94l-.36-.88q-1-2.4-2.07-4.78c-.11-.25-.23-.51-.35-.76-.72-1.61-1.47-3.22-2.24-4.81L66,44.42c-.78-1.61-1.59-3.21-2.41-4.8l-.44-.85c-.8-1.53-1.62-3.06-2.46-4.57-.16-.28-.32-.56-.47-.84Q58.86,31,57.5,28.73l-2,1.51c.85,1.44,1.68,2.88,2.49,4.34Z"/><path class="cls-6" d="M67.93,174.91A184,184,0,0,0,27.33,59.5a135,135,0,0,0,27,184.24l.48-.65A183.12,183.12,0,0,0,67.93,174.91Z"/><path class="cls-3" d="M54.8,243.09c1.23-1.65,2.44-3.31,3.7-5,.52-.69,1.06-1.37,1.59-2,.94-2.7,1.81-5.42,2.62-8.14.1-.32.19-.64.29-1l.42-1.47c.19-.67.37-1.34.55-2,.14-.48.27-1,.39-1.45.18-.69.36-1.38.53-2.07.12-.46.23-.93.35-1.4l.51-2.2c.1-.42.2-.85.29-1.28.19-.86.38-1.73.55-2.6.06-.29.13-.58.19-.88.23-1.16.46-2.33.67-3.5,0-.23.07-.45.11-.67.17-.95.33-1.89.49-2.83l.18-1.23c.12-.76.24-1.52.35-2.28l.18-1.4c.1-.7.19-1.41.28-2.12.06-.49.12-1,.17-1.47.08-.68.16-1.37.23-2.06,0-.5.1-1,.14-1.49.07-.69.13-1.37.19-2.06l.12-1.48c0-.7.1-1.39.14-2.09,0-.48.07-1,.09-1.45,0-.72.08-1.44.11-2.16l.06-1.37c0-.79,0-1.59.07-2.38,0-.38,0-.77,0-1.15,0-1.17,0-2.35,0-3.52,0-1.58,0-3.16-.07-4.74,0-.47,0-.93,0-1.4q-.06-1.76-.15-3.51c0-.46,0-.93-.07-1.39-.1-1.57-.2-3.15-.34-4.72v0c-.13-1.56-.29-3.12-.46-4.67,0-.46-.11-.92-.16-1.39-.14-1.16-.29-2.32-.45-3.49l-.18-1.37c-.23-1.56-.47-3.12-.73-4.68v0c-.26-1.55-.55-3.09-.85-4.63-.09-.46-.18-.91-.28-1.36-.23-1.16-.48-2.31-.73-3.46l-.3-1.34c-.36-1.54-.73-3.08-1.13-4.61v0c-.39-1.51-.81-3-1.24-4.54-.12-.44-.25-.88-.38-1.32-.34-1.14-.68-2.27-1-3.4-.13-.43-.27-.87-.41-1.3q-.72-2.26-1.51-4.52l0-.06c-.52-1.47-1.06-2.94-1.61-4.4-.17-.44-.34-.87-.5-1.3-.43-1.1-.87-2.21-1.33-3.31l-.51-1.26q-.93-2.2-1.9-4.39a.36.36,0,0,1,0-.09c-.64-1.42-1.31-2.83-2-4.24-.2-.42-.41-.84-.62-1.26-.52-1.07-1.06-2.13-1.6-3.2l-.63-1.22c-.74-1.41-1.5-2.83-2.28-4.23l-.07-.12c-.76-1.36-1.54-2.7-2.33-4l-.73-1.22c-.61-1-1.24-2-1.88-3.06l-.74-1.18q-1.3-2-2.65-4l-.12-.17c-.87-1.28-1.76-2.54-2.66-3.81l-.84-1.16c-.71-1-1.43-1.94-2.16-2.9l-.85-1.13c-1-1.27-2-2.53-3-3.78l-1.52,2.1a184,184,0,0,1,40.6,115.41A183.12,183.12,0,0,1,54.8,243.09Z"/><path class="cls-2" d="M257.55,91.7l-2.51,1-3.78,1.49-2.71,1.1L245,96.74l-2.81,1.19-3.42,1.48-2.85,1.25-3.36,1.52-2.85,1.3L226.38,105l-2.84,1.36L220.21,108l-2.79,1.38L214,111.16l-2.61,1.33c-1.94,1-3.88,2-5.81,3.07L202.89,117c-1.1.6-2.21,1.2-3.31,1.82s-2,1.1-2.92,1.65l-3,1.71-3,1.75c-1,.56-1.93,1.13-2.9,1.71l-3,1.81L182,129.21c-1,.62-2,1.25-3,1.88s-1.85,1.17-2.77,1.76-2,1.29-3,1.94l-2.74,1.8-3,2-2.72,1.85-3,2c-.91.63-1.8,1.27-2.7,1.9l-2.93,2.08c-.91.65-1.81,1.32-2.72,2-1.76,1.29-3.52,2.59-5.26,3.91-.94.71-1.89,1.41-2.83,2.13l-2.78,2.17-2.69,2.09-2.74,2.2c-.89.72-1.79,1.43-2.67,2.16l-2.71,2.23-2.66,2.21-2.66,2.27-2.65,2.28-2.61,2.3-2.66,2.36c-.85.76-1.7,1.52-2.54,2.29l-2.69,2.48-2.45,2.28c-.93.87-1.86,1.76-2.78,2.64l-2.3,2.21c-1,1-2.07,2-3.09,3l-1.93,1.9c-1.63,1.64-3.26,3.29-4.87,4.95L94.41,200c-1.16,1.2-2.31,2.4-3.45,3.62l-1.9,2-3,3.2-2,2.22-2.78,3.12-2,2.31c-.9,1-1.81,2.09-2.7,3.14-.35.4-.69.81-1,1.21l-.07.1c.35-.36.72-.7,1.08-1.05l2.09-2q1.68-1.62,3.39-3.21l2.17-2q1.76-1.59,3.52-3.13c.7-.61,1.4-1.23,2.1-1.83,1.35-1.16,2.71-2.29,4.08-3.42L95.56,203q2.85-2.31,5.75-4.53l1.53-1.15c1.45-1.09,2.91-2.18,4.37-3.25l2.28-1.61c1.24-.88,2.49-1.76,3.75-2.62l2.48-1.67q1.83-1.23,3.68-2.41l2.53-1.62c1.27-.8,2.55-1.58,3.83-2.36.8-.48,1.61-1,2.41-1.45,1.5-.89,3-1.75,4.52-2.61.6-.33,1.19-.68,1.79-1q3.12-1.72,6.29-3.38c.67-.35,1.34-.68,2-1,1.48-.76,3-1.51,4.46-2.24.85-.42,1.72-.82,2.58-1.23,1.33-.63,2.65-1.25,4-1.86l2.75-1.23c1.31-.58,2.62-1.15,3.94-1.7l2.75-1.16c1.38-.56,2.77-1.11,4.16-1.65.85-.34,1.7-.68,2.55-1,1.71-.65,3.42-1.27,5.13-1.88l1.62-.59q3.36-1.17,6.72-2.25l2.24-.69c1.54-.48,3.09-1,4.64-1.41.91-.27,1.81-.52,2.71-.77,1.42-.4,2.83-.79,4.25-1.16l2.84-.73c1.41-.35,2.82-.7,4.24-1l2.79-.65c1.51-.34,3-.65,4.53-1,.83-.17,1.66-.35,2.49-.51,2-.4,4-.77,6-1.12.33,0,.66-.12,1-.18,2.34-.39,4.69-.76,7-1.09l2.27-.3c1.62-.22,3.24-.43,4.86-.62l2.71-.29c1.49-.16,3-.31,4.48-.44.94-.09,1.87-.17,2.81-.24,1.5-.12,3-.22,4.49-.32l2.72-.16c1.62-.09,3.24-.15,4.86-.21l2.33-.08c2.39-.06,4.78-.1,7.17-.1h.51c1.63,0,3.27,0,4.9.05h0a1.69,1.69,0,0,0,0-.23c0-.65,0-1.29.05-1.94,0-.46,0-.92,0-1.38,0-.7,0-1.4,0-2.11,0-.4,0-.8,0-1.2,0-.89,0-1.79-.07-2.68,0-.21,0-.42,0-.64,0-1.1-.1-2.2-.17-3.3,0-.35-.05-.7-.08-1-.05-.76-.1-1.51-.17-2.26,0-.45-.09-.89-.13-1.33-.07-.66-.13-1.31-.2-2-.05-.49-.12-1-.18-1.45s-.15-1.22-.23-1.84-.15-1-.22-1.49-.17-1.19-.27-1.78-.17-1-.26-1.52-.2-1.16-.31-1.74l-.3-1.53c-.11-.58-.23-1.15-.35-1.72s-.22-1-.34-1.54-.25-1.13-.39-1.69-.25-1-.38-1.54-.28-1.12-.43-1.68-.27-1-.41-1.53l-.47-1.67c-.15-.5-.3-1-.46-1.52s-.34-1.11-.51-1.66-.32-1-.49-1.5-.37-1.11-.56-1.66-.34-1-.52-1.48l-.6-1.66-.31-.81-1.75.65C260.43,90.61,259,91.14,257.55,91.7Z"/><path class="cls-7" d="M75.58,220.9l-.15.18.08-.08Z"/><path class="cls-3" d="M86.93,204.33Q80,211.76,73.44,219.56l-.31.36q-4.75,5.63-9.37,11.45c-1.23,1.56-2.46,3.13-3.67,4.71-.53.68-1.07,1.36-1.59,2-1.26,1.65-2.47,3.31-3.7,5l-.48.65,0,0L56,242.58a275.66,275.66,0,0,1,19.26-21.25l.2-.23,0,0,.15-.18c.34-.4.68-.81,1-1.21.89-1.05,1.8-2.1,2.7-3.14l2-2.31,2.78-3.12,2-2.22,3-3.2,1.9-2c1.14-1.22,2.29-2.42,3.45-3.62l1.46-1.53c1.61-1.66,3.24-3.31,4.87-4.95l1.93-1.9c1-1,2-2,3.09-3l2.3-2.21c.92-.88,1.85-1.77,2.78-2.64l2.45-2.28L116,179c.84-.77,1.69-1.53,2.54-2.29l2.66-2.36,2.61-2.3,2.65-2.28,2.66-2.27,2.66-2.21,2.71-2.23c.88-.73,1.78-1.44,2.67-2.16l2.74-2.2,2.69-2.09,2.78-2.17c.94-.72,1.89-1.42,2.83-2.13,1.74-1.32,3.5-2.62,5.26-3.91.91-.66,1.81-1.33,2.72-2l2.93-2.08c.9-.63,1.79-1.27,2.7-1.9l3-2,2.72-1.85,3-2,2.74-1.8c1-.65,2-1.3,3-1.94s1.84-1.18,2.77-1.76,2-1.26,3-1.88l2.83-1.74,3-1.81c1-.58,1.93-1.15,2.9-1.71l3-1.75,3-1.71c1-.55,1.94-1.11,2.92-1.65s2.21-1.22,3.31-1.82l2.65-1.46c1.93-1,3.87-2.06,5.81-3.07l2.61-1.33,3.46-1.76,2.79-1.38,3.33-1.62,2.84-1.36,3.33-1.56,2.85-1.3,3.36-1.52,2.85-1.25,3.42-1.48L245,96.74l3.55-1.47,2.71-1.1L255,92.68l2.51-1c1.44-.56,2.88-1.09,4.31-1.63l1.75-.65c-.3-.78-.6-1.56-.91-2.33A452,452,0,0,0,86.93,204.33Z"/><path class="cls-4" d="M259.56,145.05l-2.44.1c-1.64.06-3.28.12-4.92.21-1,0-1.94.13-2.92.19-1.47.1-2.95.19-4.42.31l-3.12.29c-1.41.13-2.81.26-4.21.41l-3.22.38-4.09.52-3.27.48c-1.34.2-2.68.4-4,.62-1.09.18-2.19.37-3.28.57-1.33.23-2.65.48-4,.73-1.09.21-2.19.43-3.28.66-1.32.27-2.63.55-3.94.84-1.09.24-2.18.48-3.27.74l-3.93,1c-1.08.27-2.16.54-3.24.83-1.31.34-2.62.71-3.93,1.07l-3.18.9c-1.33.39-2.65.8-4,1.21-1,.31-2,.62-3.08.95-1.36.44-2.72.91-4.08,1.37-1,.33-1.95.65-2.92,1-1.46.51-2.91,1.05-4.37,1.6-.85.31-1.71.62-2.57,1-1.91.73-3.81,1.5-5.71,2.28l-1.16.46q-3.41,1.41-6.76,2.93c-.8.35-1.59.73-2.38,1.09-1.45.67-2.91,1.34-4.35,2-.93.44-1.84.91-2.76,1.37-1.3.64-2.61,1.29-3.9,2-1,.5-1.92,1-2.88,1.53-1.24.66-2.47,1.31-3.69,2-1,.54-2,1.1-2.93,1.65-1.19.68-2.38,1.36-3.56,2.06-1,.57-2,1.17-2.93,1.76q-1.76,1.05-3.48,2.13L120.5,188l-3.4,2.23-2.88,2c-1.12.77-2.23,1.55-3.34,2.34-.94.67-1.89,1.34-2.82,2-1.11.81-2.21,1.63-3.31,2.46-.92.69-1.84,1.38-2.75,2.09-1.1.85-2.19,1.72-3.28,2.58l-2.67,2.15c-1.1.9-2.19,1.83-3.28,2.75-.85.72-1.7,1.43-2.55,2.17-1.12,1-2.22,2-3.33,3-.79.71-1.59,1.41-2.38,2.14-1.19,1.09-2.36,2.21-3.53,3.33-.68.65-1.37,1.29-2,2-1.49,1.45-3,2.94-4.43,4.43l-1,1c-.9.92-1.77,1.88-2.66,2.82a209.46,209.46,0,0,1,191.5-40.61l.75-1.83.4-1.05c.24-.63.49-1.26.72-1.89l.42-1.17c.21-.6.43-1.2.63-1.81l.41-1.2c.2-.6.39-1.2.58-1.81.13-.4.25-.8.37-1.2.19-.61.37-1.23.55-1.85.11-.39.23-.77.33-1.15.19-.67.37-1.35.55-2,.09-.33.18-.66.26-1,.23-.91.45-1.83.67-2.74l.06-.28c.24-1,.46-2,.67-3.05.06-.28.11-.57.16-.85.15-.73.29-1.46.43-2.19.06-.37.13-.75.19-1.12.11-.64.22-1.29.32-1.94.07-.4.13-.8.19-1.21.09-.62.18-1.24.26-1.86.06-.41.11-.82.16-1.24.08-.62.15-1.24.22-1.86.05-.41.09-.82.14-1.22l.18-1.94c0-.38.07-.76.1-1.14l.15-2.18.06-.89V145c-1.77,0-3.54-.05-5.31-.05C264.47,145,262,145,259.56,145.05Z"/><path class="cls-3" d="M267.44,142.45h-.51c-2.39,0-4.78,0-7.17.1l-2.33.08c-1.62.06-3.24.12-4.86.21l-2.72.16c-1.5.1-3,.2-4.49.32-.94.07-1.87.15-2.81.24-1.49.13-3,.28-4.48.44l-2.71.29c-1.62.19-3.24.4-4.86.62l-2.27.3c-2.35.33-4.7.7-7,1.09-.33.06-.66.13-1,.18-2,.35-4,.72-6,1.12-.83.16-1.66.34-2.49.51-1.51.32-3,.63-4.53,1l-2.79.65c-1.42.33-2.83.68-4.24,1l-2.84.73c-1.42.37-2.83.76-4.25,1.16-.9.25-1.8.5-2.71.77-1.55.45-3.1.93-4.64,1.41l-2.24.69q-3.36,1.08-6.72,2.25l-1.62.59c-1.71.61-3.42,1.23-5.13,1.88-.85.32-1.7.66-2.55,1-1.39.54-2.78,1.09-4.16,1.65l-2.75,1.16c-1.32.55-2.63,1.12-3.94,1.7L153.8,167c-1.33.61-2.65,1.23-4,1.86-.86.41-1.73.81-2.58,1.23-1.5.73-3,1.48-4.46,2.24-.67.34-1.34.67-2,1q-3.17,1.65-6.29,3.38c-.6.34-1.19.69-1.79,1-1.51.86-3,1.72-4.52,2.61-.8.47-1.61,1-2.41,1.45-1.28.78-2.56,1.56-3.83,2.36l-2.53,1.62q-1.84,1.18-3.68,2.41l-2.48,1.67c-1.26.86-2.51,1.74-3.75,2.62l-2.28,1.61c-1.46,1.07-2.92,2.16-4.37,3.25l-1.53,1.15q-2.9,2.22-5.75,4.53l-1.62,1.35c-1.37,1.13-2.73,2.26-4.08,3.42-.7.6-1.4,1.22-2.1,1.83q-1.77,1.54-3.52,3.13l-2.17,2q-1.71,1.59-3.39,3.21l-2.09,2c-.43.42-.84.85-1.27,1.27l-.11.11A275.66,275.66,0,0,0,56,242.58L58.14,241q6.13-6.06,12.67-11.52c.89-.94,1.76-1.9,2.66-2.82l1-1c1.46-1.49,2.94-3,4.43-4.43.68-.66,1.37-1.3,2-2,1.17-1.12,2.34-2.24,3.53-3.33.79-.73,1.59-1.43,2.38-2.14,1.11-1,2.21-2,3.33-3,.85-.74,1.7-1.45,2.55-2.17,1.09-.92,2.18-1.85,3.28-2.75l2.67-2.15c1.09-.86,2.18-1.73,3.28-2.58.91-.71,1.83-1.4,2.75-2.09,1.1-.83,2.2-1.65,3.31-2.46.93-.68,1.88-1.35,2.82-2,1.11-.79,2.22-1.57,3.34-2.34l2.88-2,3.4-2.23,2.91-1.86q1.73-1.08,3.48-2.13c1-.59,1.94-1.19,2.93-1.76,1.18-.7,2.37-1.38,3.56-2.06,1-.55,2-1.11,2.93-1.65,1.22-.68,2.45-1.33,3.69-2,1-.51,1.91-1,2.88-1.53,1.29-.66,2.6-1.31,3.9-2,.92-.46,1.83-.93,2.76-1.37,1.44-.7,2.9-1.37,4.35-2,.79-.36,1.58-.74,2.38-1.09q3.36-1.51,6.76-2.93l1.16-.46c1.9-.78,3.8-1.55,5.71-2.28.86-.33,1.72-.64,2.57-1,1.46-.55,2.91-1.09,4.37-1.6,1-.35,1.95-.67,2.92-1,1.36-.46,2.72-.93,4.08-1.37,1-.33,2.06-.64,3.08-.95,1.33-.41,2.65-.82,4-1.21l3.18-.9c1.31-.36,2.62-.73,3.93-1.07,1.08-.29,2.16-.56,3.24-.83l3.93-1c1.09-.26,2.18-.5,3.27-.74,1.31-.29,2.62-.57,3.94-.84,1.09-.23,2.19-.45,3.28-.66,1.33-.25,2.65-.5,4-.73,1.09-.2,2.19-.39,3.28-.57,1.34-.22,2.68-.42,4-.62l3.27-.48,4.09-.52,3.22-.38c1.4-.15,2.8-.28,4.21-.41l3.12-.29c1.47-.12,2.95-.21,4.42-.31,1-.06,1.95-.14,2.92-.19,1.64-.09,3.28-.15,4.92-.21l2.44-.1c2.46-.06,4.91-.1,7.37-.1,1.77,0,3.54,0,5.31.05.05-.83.08-1.66.11-2.5h0C270.71,142.47,269.07,142.46,267.44,142.45Z"/><path class="cls-5" d="M205,183.33A206.61,206.61,0,0,0,71.64,232,186.57,186.57,0,0,1,243.23,221.3l1.6-2c.8-1.06,1.58-2.13,2.35-3.2l.72-1c.52-.75,1-1.51,1.56-2.26l.76-1.16q.75-1.12,1.47-2.28c.23-.35.45-.7.67-1.05.63-1,1.26-2.06,1.86-3.1.05-.08.1-.16.14-.24.65-1.12,1.28-2.24,1.89-3.37.19-.35.37-.7.55-1,.42-.8.84-1.6,1.25-2.4l.6-1.22c.39-.78.77-1.58,1.14-2.37.18-.38.36-.75.53-1.13.34-.76.67-1.52,1-2.27A206.15,206.15,0,0,0,205,183.33Z"/><path class="cls-3" d="M70.81,229.44Q64.29,234.9,58.14,241q6.58-4.8,13.5-9a206.86,206.86,0,0,1,189.68-40.85h0c.33-.78.66-1.55,1-2.33a209.46,209.46,0,0,0-191.5,40.61Z"/><path class="cls-6" d="M167.88,207.85a184,184,0,0,0-111.47,37.5,135,135,0,0,0,185.2-22A183.07,183.07,0,0,0,167.88,207.85Z"/><path class="cls-3" d="M167.88,205.35A186.9,186.9,0,0,0,71.64,232q-6.92,4.16-13.5,9L56,242.58l-1.59,1.19,1.32,1,.73.54a184.09,184.09,0,0,1,185.2-22c.54-.66,1.09-1.33,1.63-2h0A185.5,185.5,0,0,0,167.88,205.35Z"/></g><g id="Typo"><path class="cls-3" d="M137.58,2.5A135,135,0,1,1,30.14,55.67,134.35,134.35,0,0,1,137.58,2.5m0-2.5V0A138.65,138.65,0,0,0,77.48,13.77,137.53,137.53,0,0,0,1.26,155.86,137.47,137.47,0,0,0,137.38,274.93a138.82,138.82,0,0,0,60.11-13.76,137.56,137.56,0,0,0,76.22-142.1A137.47,137.47,0,0,0,137.59,0Z"/><path class="cls-5" d="M312.77,113.65c0-12.27,6.29-18.77,15.81-18.77s15.81,6.5,15.81,18.77-6.25,18.78-15.81,18.78S312.77,125.93,312.77,113.65Zm24.33,2.81v-5.61c0-6.19-3.32-9.88-8.52-9.88s-8.53,3.69-8.53,9.88v5.61c0,6.19,3.33,9.88,8.53,9.88S337.1,122.65,337.1,116.46Z"/><path class="cls-5" d="M351.46,104.66h6.65v4.47h.21a7.52,7.52,0,0,1,7.49-5.1c6.86,0,10.66,5.1,10.66,14.15s-3.8,14.25-10.66,14.25a7.67,7.67,0,0,1-7.49-5.15h-.21V142.2h-6.65Zm18,15.91v-4.68c0-3.85-2.39-6.4-5.82-6.4-3.18,0-5.57,1.72-5.57,4.37v8.63c0,2.81,2.39,4.42,5.57,4.42C367.11,126.91,369.5,124.42,369.5,120.57Z"/><path class="cls-5" d="M381.35,118.18c0-8.58,4.63-14.15,12.59-14.15,8.48,0,12.38,6.24,12.38,13.68v2.18H388.27v.68c0,3.9,2.24,6.55,6.61,6.55,3.27,0,5.25-1.56,6.91-3.69l3.59,4c-2.24,3.07-6.19,5-11.23,5C386.14,132.43,381.35,126.86,381.35,118.18Zm6.92-2.81v.42H399.4v-.47c0-3.75-1.93-6.29-5.36-6.29S388.27,111.63,388.27,115.37Z"/><path class="cls-5" d="M412.71,131.8V104.66h6.66v4.52h.26a7.49,7.49,0,0,1,7.59-5.15c5.56,0,8.68,3.85,8.68,10.61V131.8h-6.65V115.32c0-3.85-1.3-5.83-4.48-5.83-2.75,0-5.4,1.46-5.4,4.37V131.8Z"/><path class="cls-5" d="M454.78,126.39l4.63-4.47a11.81,11.81,0,0,0,9.31,4.47c4.21,0,6.39-2,6.39-5.09,0-2.45-1.14-4-4.94-4.63l-3.43-.52c-7.33-1.14-10.87-4.63-10.87-10.56,0-6.5,5-10.71,13.16-10.71,5.46,0,9.51,1.87,12.43,5.36l-4.69,4.42a9.64,9.64,0,0,0-8.11-3.75c-3.9,0-5.93,1.56-5.93,4.27s1.56,3.9,5,4.52l3.38.63c7.33,1.3,10.76,4.57,10.76,10.55,0,6.87-4.94,11.55-13.62,11.55A16.84,16.84,0,0,1,454.78,126.39Z"/><path class="cls-5" d="M487.07,118.18c0-8.69,4.84-14.15,12.58-14.15s12.64,5.46,12.64,14.15-4.83,14.25-12.64,14.25S487.07,126.91,487.07,118.18Zm18.25,2.55v-5c0-4.05-2.18-6.29-5.67-6.29s-5.61,2.24-5.61,6.29v5c0,4.1,2.18,6.34,5.61,6.34S505.32,124.83,505.32,120.73Z"/><path class="cls-5" d="M534.91,127.28h-.26c-.94,2.7-3.12,5.15-7.59,5.15-5.57,0-8.69-3.85-8.69-10.61V104.66H525v16.48c0,3.75,1.4,5.77,4.58,5.77,2.65,0,5.3-1.4,5.3-4.31V104.66h6.66V131.8h-6.66Z"/><path class="cls-5" d="M549.78,131.8V104.66h6.66v5.61h.26a7,7,0,0,1,7.17-5.61h1.46V111h-2.08c-4.47,0-6.81,1.25-6.81,4.21V131.8Z"/><path class="cls-5" d="M568.66,118.18c0-8.69,4.52-14.15,12.53-14.15,5.46,0,9,2.6,10.66,6.87l-5.46,2.44a5.06,5.06,0,0,0-5.2-4c-3.69,0-5.56,2.6-5.56,6.4v4.94c0,3.79,1.87,6.34,5.56,6.34,3.17,0,4.73-1.82,5.72-4.26l5.1,2.44c-1.77,4.78-5.57,7.18-10.82,7.18C573.18,132.43,568.66,126.91,568.66,118.18Z"/><path class="cls-5" d="M595.59,118.18c0-8.58,4.63-14.15,12.59-14.15,8.47,0,12.37,6.24,12.37,13.68v2.18h-18v.68c0,3.9,2.24,6.55,6.6,6.55,3.28,0,5.26-1.56,6.92-3.69l3.59,4c-2.24,3.07-6.19,5-11.23,5C600.38,132.43,595.59,126.86,595.59,118.18Zm6.92-2.81v.42h11.13v-.47c0-3.75-1.93-6.29-5.36-6.29S602.51,111.63,602.51,115.37Z"/><path class="cls-5" d="M314.33,188.8V152.51h23.92v6.08H321.19v8.79h15.08v6.08H321.19v9.26h17.06v6.08Z"/><path class="cls-5" d="M343.29,175.18c0-8.69,4.53-14.15,12.53-14.15,5.46,0,9.05,2.6,10.66,6.87L361,170.34a5.06,5.06,0,0,0-5.2-4c-3.69,0-5.56,2.6-5.56,6.4v4.94c0,3.79,1.87,6.34,5.56,6.34,3.18,0,4.74-1.82,5.72-4.26l5.1,2.44c-1.77,4.78-5.56,7.18-10.82,7.18C347.82,189.43,343.29,183.91,343.29,175.18Z"/><path class="cls-5" d="M370.23,175.18c0-8.69,4.83-14.15,12.58-14.15s12.64,5.46,12.64,14.15-4.84,14.25-12.64,14.25S370.23,183.91,370.23,175.18Zm18.25,2.55v-5c0-4.05-2.18-6.29-5.67-6.29s-5.61,2.24-5.61,6.29v5c0,4.1,2.18,6.34,5.61,6.34S388.48,181.83,388.48,177.73Z"/><path class="cls-5" d="M401.84,188.8V161.66h6.66v4.52h.26a7.49,7.49,0,0,1,7.59-5.15c5.57,0,8.69,3.85,8.69,10.61V188.8h-6.66V172.32c0-3.85-1.3-5.83-4.47-5.83-2.76,0-5.41,1.46-5.41,4.37V188.8Z"/><path class="cls-5" d="M431.12,175.18c0-8.69,4.83-14.15,12.58-14.15s12.64,5.46,12.64,14.15-4.84,14.25-12.64,14.25S431.12,183.91,431.12,175.18Zm18.25,2.55v-5c0-4.05-2.18-6.29-5.67-6.29s-5.61,2.24-5.61,6.29v5c0,4.1,2.18,6.34,5.61,6.34S449.37,181.83,449.37,177.73Z"/><path class="cls-5" d="M462.73,188.8V161.66h6.66v4.52h.26a7.24,7.24,0,0,1,7.28-5.15,7.82,7.82,0,0,1,7.85,5.46h.11c1-3,4-5.46,8.32-5.46,5.3,0,8.32,3.85,8.32,10.61V188.8h-6.66V172.32c0-3.9-1.4-5.83-4.37-5.83-2.6,0-5,1.46-5,4.37V188.8H478.8V172.32c0-3.9-1.4-5.83-4.37-5.83-2.54,0-5,1.46-5,4.37V188.8Z"/><path class="cls-5" d="M508.86,154.38v-1c0-1.93,1.14-3.33,3.9-3.33s3.9,1.4,3.9,3.33v1c0,1.92-1.2,3.32-3.9,3.32S508.86,156.3,508.86,154.38Zm.57,7.28h6.66V188.8h-6.66Z"/><path class="cls-5" d="M522.48,175.18C522.48,166.49,527,161,535,161c5.46,0,9,2.6,10.66,6.87l-5.46,2.44a5.06,5.06,0,0,0-5.2-4c-3.69,0-5.56,2.6-5.56,6.4v4.94c0,3.79,1.87,6.34,5.56,6.34,3.17,0,4.74-1.82,5.72-4.26l5.1,2.44c-1.77,4.78-5.57,7.18-10.82,7.18C527,189.43,522.48,183.91,522.48,175.18Z"/><path class="cls-5" d="M549.16,184.43l4.05-4a9.54,9.54,0,0,0,7.44,3.69c3.17,0,4.52-1.19,4.52-3.12,0-1.56-.93-2.54-3.33-2.86l-2.7-.36c-5.82-.73-9-3.28-9-8.22,0-5.25,4.11-8.58,10.3-8.58,5.3,0,8,1.56,10.61,4.27l-3.9,3.9a8.94,8.94,0,0,0-6.5-2.91c-2.86,0-4.11,1.14-4.11,2.8,0,1.82,1,2.66,3.53,3.07l2.76.37c5.93.83,8.79,3.48,8.79,8,0,5.26-4.42,8.9-11.18,8.9A13.77,13.77,0,0,1,549.16,184.43Z"/><path class="cls-5" d="M591.74,152.51h14.93c6,0,9.67,3.69,9.67,9.35,0,5.41-3.48,7.34-5.88,7.7v.31c2.6.16,7.13,2.4,7.13,8.43s-4,10.5-9.36,10.5H591.74Zm4.37,15.7h10c3.43,0,5.51-1.82,5.51-5V161.4c0-3.23-2.08-5.05-5.51-5.05h-10Zm0,16.74h10.77c3.74,0,6-2,6-5.61v-1.77c0-3.64-2.29-5.62-6-5.62H596.11Z"/><path class="cls-5" d="M623.31,175.39c0-8.53,4.94-14,12.11-14s12.12,5.51,12.12,14-4.94,14-12.12,14S623.31,183.91,623.31,175.39Zm19.76,1.92v-3.85c0-5.67-3.17-8.42-7.65-8.42s-7.64,2.75-7.64,8.42v3.85c0,5.67,3.17,8.42,7.64,8.42S643.07,183,643.07,177.31Z"/><path class="cls-5" d="M654.4,188.8V162h4.16v4.37h.21a7.6,7.6,0,0,1,7.59-5c5.52,0,9,3.74,9,10.24V188.8H671.2V172.32c0-4.79-2.08-7.23-6.08-7.23-3.33,0-6.56,1.66-6.56,5.1V188.8Z"/><path class="cls-5" d="M683.94,188.8V162h4.16v4.37h.21a7.6,7.6,0,0,1,7.59-5c5.51,0,9,3.74,9,10.24V188.8h-4.16V172.32c0-4.79-2.08-7.23-6.09-7.23-3.33,0-6.55,1.66-6.55,5.1V188.8Z"/></g></svg>